<?xml version="1.0" encoding="UTF-8"?>
<!DOCTYPE svg PUBLIC "-//W3C//DTD SVG 1.1//EN" "http://www.w3.org/Graphics/SVG/1.1/DTD/svg11.dtd">
<!-- Creator: CorelDRAW -->
<svg xmlns="http://www.w3.org/2000/svg" xml:space="preserve" width="33.0326mm" height="36.8042mm" style="shape-rendering:geometricPrecision; text-rendering:geometricPrecision; image-rendering:optimizeQuality; fill-rule:evenodd; clip-rule:evenodd"
viewBox="0 0 8.32061 9.27064"
 xmlns:xlink="http://www.w3.org/1999/xlink">
 <defs>
  <style type="text/css">
   <![CDATA[
    @font-face { font-family:"Constantia";src:url("#FontID0") format(svg)}
    .str2 {stroke:#633F83;stroke-width:0.0191941}
    .str0 {stroke:#633F83;stroke-width:0.133301}
    .str1 {stroke-width:28.502}
    .fil0 {fill:#0000}
    .fil1 {fill:#633F83}
    .fnt0 {font-weight:normal;font-size:0.67343;font-family:'Constantia'}
   ]]>
  </style>
 </defs>
 <g id="Layer_x0020_1">
  <metadata id="CorelCorpID_0Corel-Layer"/>
  <path class="fil0 str0" d="M0.0670281 1.34807c2.41712,-1.43545 5.00905,-1.96976 8.18617,0.0200757 -0.0785143,3.85632 -1.57867,6.352 -4.14821,7.82441 -2.37095,-1.54273 -3.99781,-3.86378 -4.03796,-7.84448z"/>
  <g id="_36715248">
   <path id="_36714744" class="fil1" d="M3.08773 1.15855c0.458542,0.542346 0.986807,0.730785 1.60137,0.651541 0.644211,0.0142822 1.09439,0.320959 1.34683,0.779904l0.794766 -0.377307 -0.170278 -0.275014 1.00789 -0.0416627 -0.610231 0.710332 -0.144409 -0.25509 -0.814464 0.375947 0.0681868 0.107834c0.348818,0.073401 0.448542,0.443957 0.180253,0.666704 -0.00387912,0.530759 -0.256097,0.990611 -0.566754,1.42386 -0.377786,0.478114 -0.408265,0.927789 -0.244586,1.3617 -0.130933,-0.168011 -0.248667,-0.345393 -0.261437,-0.599072l-1.02245 -0.292118 1.00802 0.126097c0.226903,-0.704538 0.873305,-1.52094 0.769803,-1.97596 -0.102746,-0.0117885 -0.159321,-0.04063 -0.189271,-0.0657939 -0.224183,0.26839 -0.509373,0.507686 -0.970157,0.789627 -0.0761214,0.113855 -0.282999,0.248465 -0.627334,0.404839 0.0955673,0.167608 0.0016121,0.339524 -0.269397,0.52489 -0.339775,0.248465 -0.47829,0.494991 -0.474814,0.737108 0.0180354,0.318617 0.147054,0.593706 0.323025,0.85066 -0.692221,-0.518089 -1.1395,-1.09227 -0.932978,-1.81213 0.179875,-0.406602 0.449046,-0.759551 0.807134,-1.0355 0.269523,-0.129195 0.566905,-0.200807 0.896882,-0.204611 0.242017,-0.218591 0.732322,-0.296148 1.20394,-0.495318l0.0422925 -0.204309 -0.0722171 -0.127557 -1.83379 0.753103 1.75346 -0.919955c-0.182268,-0.371791 -0.538114,-0.538971 -0.99522,-0.612397 -0.376526,-0.0463479 -0.758292,-0.157432 -1.14227,-0.293906l-0.53086 0.914263 0.400683 -0.98857c-0.144812,-0.175946 -0.234057,-0.392068 -0.331614,-0.602145z"/>
   <path id="_36715272" class="fil1" d="M2.66251 5.42454c-0.0218641,-0.0187407 -0.00559197,-0.300405 0.161915,-0.642674 0.0927966,-0.189749 0.19713,-0.387206 0.20247,-0.398365 0.153502,-0.318994 0.289322,-0.356098 0.460834,-0.406703 0.0590936,-0.262168 0.0122419,-0.525948 -0.132041,-0.791138 -0.0983885,-0.285896 -0.111411,-0.393479 -0.611817,-0.288793 -0.555419,0.27582 -0.549046,0.695899 0.146349,1.29278 -0.266173,0.447358 -0.305644,0.852197 -0.227709,1.23489z"/>
   <path id="_36715416" class="fil1" d="M0.946908 5.01086c0.020655,-0.208037 0.154006,-0.367106 0.365997,-0.447257 0.220153,-0.0679601 0.451313,-0.00569273 0.602069,-0.0564487l0.152545 -0.116147 0.319196 -0.34839c0.165114,-0.143704 0.197734,-0.100605 0.0807562,0.15854 0.15126,0.00569273 0.136348,-0.0296727 0.285871,-0.0622422l0.0278339 0.0545847 -0.094056 0.0595974 -0.042897 0.0770786 0.169019 -0.0792448 0.00259447 0.0208314 0.0242067 0.0293957 -0.19184 0.151563c-0.000377836,0.250782 -0.14184,0.363781 -0.468794,0.296047l-0.773254 0.409574c-0.244586,0.057154 -0.395116,0.00491187 -0.459247,-0.147482z"/>
  </g>
 </g>
</svg>
