<?xml version="1.0" encoding="UTF-8"?>
<!DOCTYPE svg PUBLIC "-//W3C//DTD SVG 1.1//EN" "http://www.w3.org/Graphics/SVG/1.1/DTD/svg11.dtd">
<!-- Creator: CorelDRAW -->
<svg xmlns="http://www.w3.org/2000/svg" xml:space="preserve" width="33.0326mm" height="36.8042mm" style="shape-rendering:geometricPrecision; text-rendering:geometricPrecision; image-rendering:optimizeQuality; fill-rule:evenodd; clip-rule:evenodd"
viewBox="0 0 7.22986 8.05536"
 xmlns:xlink="http://www.w3.org/1999/xlink">
 <defs>
  <style type="text/css">
   <![CDATA[
    @font-face { font-family:"Constantia";src:url("#FontID0") format(svg)}
    .str1 {stroke:#FEFEFE;stroke-width:0.0166779}
    .str0 {stroke:white;stroke-width:0.115826}
    .fil0 {fill:none}
    .fil1 {fill:#FEFEFE}
    .fil2 {fill:white}
    .fnt0 {font-weight:normal;font-size:0.58515;font-family:'Constantia'}
   ]]>
  </style>
 </defs>
 <g id="Layer_x0020_1">
  <metadata id="CorelCorpID_0Corel-Layer"/>
  <path class="fil0 str0" d="M0.0582415 1.17135c2.10026,-1.24728 4.35242,-1.71155 7.11305,0.017444 -0.068222,3.3508 -1.37173,5.51932 -3.60443,6.79871 -2.06014,-1.34049 -3.47374,-3.35728 -3.50863,-6.81615z"/>
  <g id="_260849312">
   <path id="_260849456" class="fil1 str1" d="M2.68296 1.00667c0.398432,0.47125 0.857447,0.634987 1.39145,0.566131 0.559761,0.01241 0.950927,0.278885 1.17028,0.677667l0.69058 -0.327846 -0.147956 -0.238963 0.875767 -0.0362012 -0.530236 0.617215 -0.125478 -0.22165 -0.707696 0.326664 0.0592483 0.0936985c0.303092,0.0637789 0.389743,0.385759 0.156624,0.579307 -0.00337061,0.461182 -0.222526,0.860752 -0.492459,1.23721 -0.328262,0.415438 -0.354745,0.806166 -0.212523,1.18319 -0.113769,-0.145987 -0.216069,-0.300115 -0.227166,-0.52054l-0.888417 -0.253824 0.875876 0.109567c0.197159,-0.612181 0.758824,-1.32156 0.66889,-1.71693 -0.0892773,-0.0102431 -0.138436,-0.0353038 -0.164459,-0.057169 -0.194795,0.233207 -0.4426,0.441134 -0.84298,0.686115 -0.0661427,0.0989295 -0.245901,0.215894 -0.545097,0.351769 0.0830395,0.145636 0.00140077,0.295016 -0.234082,0.456082 -0.295234,0.215894 -0.415591,0.430103 -0.412571,0.640481 0.0156711,0.276849 0.127777,0.515878 0.28068,0.739148 -0.601478,-0.450173 -0.990127,-0.949088 -0.810675,-1.57458 0.156295,-0.353301 0.390181,-0.659982 0.701327,-0.899755 0.234191,-0.112259 0.49259,-0.174484 0.77931,-0.177789 0.210291,-0.189936 0.636322,-0.257326 1.04611,-0.430387l0.0367484 -0.177526 -0.0627502 -0.110836 -1.5934 0.654379 1.5236 -0.799359c-0.158375,-0.323053 -0.467573,-0.468317 -0.864758,-0.532118 -0.327168,-0.0402722 -0.658888,-0.136794 -0.992534,-0.255378l-0.46127 0.794413 0.348157 -0.858979c-0.125829,-0.152881 -0.203375,-0.340672 -0.288143,-0.52321z"/>
   <path id="_260849432" class="fil1 str1" d="M2.31348 4.71344c-0.018998,-0.016284 -0.00485893,-0.261025 0.14069,-0.558426 0.0806319,-0.164875 0.171288,-0.336448 0.175928,-0.346144 0.13338,-0.277178 0.251395,-0.309417 0.400424,-0.353388 0.051347,-0.2278 0.0106371,-0.457002 -0.114732,-0.687429 -0.0854908,-0.248418 -0.0968064,-0.341898 -0.531615,-0.250935 -0.48261,0.239663 -0.477072,0.604674 0.127164,1.12331 -0.231281,0.388714 -0.265578,0.740483 -0.197859,1.07301z"/>
   <path id="_260849792" class="fil1 str1" d="M0.822778 4.35399c0.0179474,-0.180765 0.133817,-0.318982 0.318019,-0.388627 0.191293,-0.0590513 0.39215,-0.00494647 0.523144,-0.0490489l0.132548 -0.100921 0.277353 -0.30272c0.14347,-0.124866 0.171813,-0.0874169 0.0701699,0.137757 0.131432,0.00494647 0.118475,-0.025783 0.248396,-0.0540829l0.0241852 0.0474292 -0.0817263 0.0517848 -0.0372737 0.0669744 0.146862 -0.0688567 0.00225437 0.0181006 0.0210335 0.0255422 -0.166692 0.131694c-0.000328306,0.217908 -0.123246,0.316093 -0.40734,0.257239l-0.671889 0.355884c-0.212523,0.0496617 -0.34332,0.00426798 -0.399045,-0.128149z"/>
  </g>
 </g>
</svg>
