<?xml version="1.0" encoding="UTF-8"?>
<!DOCTYPE svg PUBLIC "-//W3C//DTD SVG 1.1//EN" "http://www.w3.org/Graphics/SVG/1.1/DTD/svg11.dtd">
<!-- Creator: CorelDRAW -->
<svg xmlns="http://www.w3.org/2000/svg" xml:space="preserve" width="32.4989mm" height="36.2304mm" style="shape-rendering:geometricPrecision; text-rendering:geometricPrecision; image-rendering:optimizeQuality; fill-rule:evenodd; clip-rule:evenodd"
viewBox="0 0 8.17595 9.1147"
 xmlns:xlink="http://www.w3.org/1999/xlink">
 <defs>
  <style type="text/css">
   <![CDATA[
    .str0 {stroke:#FEFEFE;stroke-width:0.0191701}
    .fil1 {fill:#FEFEFE}
    .fil0 {fill:#633F83}
    .fil2 {fill:white;fill-rule:nonzero}
   ]]>
  </style>
 </defs>
 <g id="Layer_x0020_1">
  <metadata id="CorelCorpID_0Corel-Layer"/>
  <path class="fil0" d="M-0 1.28002c2.4141,-1.43366 5.00279,-1.9673 8.17595,0.0200506 -0.0784163,3.8515 -1.5767,6.34407 -4.14303,7.81463 -2.36799,-1.5408 -3.99281,-3.85895 -4.03292,-7.83468z"/>
  <path class="fil1 str0" d="M3.01693 1.09073c0.457969,0.541668 0.985574,0.729873 1.59937,0.650727 0.643406,0.0142644 1.09302,0.320558 1.34515,0.77893l0.793773 -0.376836 -0.170065 -0.274671 1.00663 -0.0416107 -0.609468 0.709445 -0.144229 -0.254771 -0.813446 0.375477 0.0681016 0.1077c0.348383,0.0733093 0.447982,0.443403 0.180028,0.665872 -0.00387427,0.530096 -0.255777,0.989373 -0.566046,1.42208 -0.377314,0.477517 -0.407755,0.92663 -0.24428,1.36 -0.130769,-0.167801 -0.248356,-0.344961 -0.261111,-0.598323l-1.02117 -0.291753 1.00676 0.125939c0.22662,-0.703658 0.872214,-1.51904 0.768842,-1.97349 -0.102618,-0.0117738 -0.159122,-0.0405792 -0.189034,-0.0657117 -0.223903,0.268054 -0.508737,0.507052 -0.968945,0.788641 -0.0760263,0.113712 -0.282646,0.248155 -0.62655,0.404333 0.095448,0.167399 0.00161009,0.339099 -0.269061,0.524234 -0.339351,0.248155 -0.477693,0.494372 -0.474221,0.736187 0.0180128,0.318219 0.14687,0.592965 0.322621,0.849598 -0.691356,-0.517442 -1.13808,-1.09091 -0.931813,-1.80986 0.17965,-0.406094 0.448485,-0.758603 0.806125,-1.0342 0.269186,-0.129033 0.566197,-0.200556 0.895762,-0.204355 0.241714,-0.218318 0.731407,-0.295778 1.20243,-0.494699l0.0422396 -0.204053 -0.0721269 -0.127398 -1.8315 0.752162 1.75127 -0.918806c-0.18204,-0.371326 -0.537442,-0.538297 -0.993977,-0.611632 -0.376056,-0.04629 -0.757345,-0.157235 -1.14085,-0.293539l-0.530197 0.913121 0.400182 -0.987335c-0.144631,-0.175726 -0.233764,-0.391578 -0.3312,-0.601393z"/>
  <path class="fil1 str0" d="M2.59224 5.3514c-0.0218368,-0.0187173 -0.00558499,-0.30003 0.161713,-0.641871 0.0926806,-0.189512 0.196883,-0.386723 0.202217,-0.397868 0.15331,-0.318596 0.28896,-0.355653 0.460258,-0.406195 0.0590197,-0.26184 0.0122266,-0.525291 -0.131876,-0.79015 -0.0982656,-0.285539 -0.111272,-0.392987 -0.611053,-0.288432 -0.554725,0.275476 -0.54836,0.695029 0.146166,1.29116 -0.26584,0.446799 -0.305262,0.851132 -0.227425,1.23335z"/>
  <path class="fil1 str0" d="M0.87878 4.93824c0.0206292,-0.207777 0.153814,-0.366647 0.36554,-0.446698 0.219877,-0.0678752 0.450749,-0.00568562 0.601317,-0.0563782l0.152354 -0.116002 0.318797 -0.347955c0.164908,-0.143524 0.197487,-0.100479 0.0806553,0.158342 0.151071,0.00568562 0.136178,-0.0296357 0.285514,-0.0621644l0.0277992 0.0545165 -0.0939385 0.0595229 -0.0428434 0.0769823 0.168808 -0.0791458 0.00259123 0.0208053 0.0241765 0.0293589 -0.1916 0.151373c-0.000377364,0.250469 -0.141662,0.363326 -0.468208,0.295677l-0.772288 0.409063c-0.24428,0.0570826 -0.394622,0.00490573 -0.458674,-0.147298z"/>
  <path class="fil2" d="M2.99298 7.40889l0.0144656 -0.00259123 -0.00661645 0.105385 -0.00223903 0.00233966c-0.0447302,-0.000679255 -0.0914731,-0.0010063 -0.140229,-0.0010063 -0.0452837,0 -0.0870956,0.000327049 -0.125109,0.0010063l-0.00236482 -0.0268935c0.0206292,-0.0134593 0.0391452,-0.0257865 0.0554977,-0.0372333 0.0164782,-0.0113209 0.0307174,-0.0219626 0.0427176,-0.0318244 0.0120002,-0.00963536 0.0226418,-0.018843 0.0318244,-0.0275727 0.00920768,-0.00875485 0.0169311,-0.0174845 0.0232205,-0.0261136 0.00616361,-0.00865422 0.0109687,-0.0173839 0.014214,-0.0264658 0.00337112,-0.00895611 0.00495605,-0.0183902 0.00495605,-0.0281262 0,-0.0201764 -0.00729571,-0.036227 -0.0219877,-0.0480007 -0.014692,-0.0118744 -0.0326043,-0.017711 -0.0539128,-0.017711 -0.0248809,0 -0.050114,0.00674224 -0.0754477,0.0203022l-0.0125536 -0.0216355c0.0409063,-0.0277992 0.0820641,-0.0417113 0.123197,-0.0417113 0.0308181,0 0.056504,0.00752212 0.0770074,0.0224406 0.0205286,0.0150191 0.0307174,0.0358496 0.0307174,0.0626424 0,0.016604 -0.00369817,0.032076 -0.0111951,0.0464158 -0.00742149,0.0143398 -0.0182896,0.0284784 -0.0325288,0.0422648 -0.0142392,0.0137864 -0.031598,0.0276985 -0.0522272,0.0418119 -0.0205286,0.0141134 -0.044051,0.0290319 -0.0706174,0.0448309l0.000327049 0.00168556 0.163223 0 0.0256608 -0.0542398zm0.459152 -0.325766c-0.0230947,-0.00762276 -0.0441516,-0.0115473 -0.0634475,-0.0115473 -0.0289061,0 -0.0519001,0.00706929 -0.0691583,0.0210821 -0.0171575,0.0140128 -0.0257865,0.0335099 -0.0257865,0.0583908 0,0.0142392 0.00301891,0.0267929 0.0090819,0.0374345 0.00606298,0.0107675 0.0141134,0.0201764 0.0243274,0.028252 0.0101888,0.00820138 0.0217362,0.0153713 0.034642,0.0217613 0.0128807,0.00626424 0.0262142,0.0125536 0.0400006,0.0187173 0.0151449,0.00649066 0.0298369,0.0134342 0.0440761,0.0208557 0.0142392,0.00727055 0.0271199,0.0158996 0.0385415,0.0257614 0.0115473,0.00988694 0.020755,0.0216355 0.0275979,0.0354219 0.0069435,0.0138115 0.0104152,0.0299376 0.0104152,0.0483278 0,0.0435981 -0.0153713,0.076781 -0.0458372,0.0997751 -0.0306168,0.0230947 -0.0728816,0.0345162 -0.126895,0.0345162 -0.0348684,0 -0.0734351,-0.0059372 -0.1157,-0.017711l-0.00191198 -0.00269186 0.0160506 -0.111649 0.0147927 -0.00223903 0.0229689 0.0932593c0.0231953,0.00920768 0.0469693,0.0137864 0.0712967,0.0137864 0.0326294,0 0.0580638,-0.00727055 0.0763282,-0.0216355 0.0182896,-0.0144656 0.0274721,-0.0350697 0.0274721,-0.0617619 0,-0.0140128 -0.00301891,-0.02634 -0.00885548,-0.0369817 -0.0059372,-0.0106668 -0.013887,-0.0197487 -0.0238746,-0.0273715 -0.00998757,-0.00772339 -0.0213085,-0.0146669 -0.0339628,-0.0208305 -0.0126794,-0.0062894 -0.0258872,-0.012453 -0.0394723,-0.0186166 -0.0152455,-0.00661645 -0.0301388,-0.0136857 -0.0446044,-0.0213085 -0.0144656,-0.00772339 -0.0275727,-0.0165789 -0.0392207,-0.0267929 -0.0117738,-0.0101888 -0.0210821,-0.0226418 -0.0281514,-0.0374345 -0.0069435,-0.0147927 -0.0104152,-0.0320508 -0.0104152,-0.0517744 0,-0.0395729 0.0147927,-0.0702904 0.0445038,-0.0919259 0.0295853,-0.0216355 0.0689318,-0.0325036 0.118039,-0.0325036 0.0345162,0 0.0708438,0.00402522 0.108731,0.0121008l0.00223903 0.00233966 -0.0193965 0.102467 -0.0131071 0.00236482 -0.0213085 -0.0818377zm0.295929 0.281136c-0.0479756,0 -0.0807056,0.00470447 -0.0981901,0.0141386 -0.0176103,0.00940895 -0.02634,0.0252079 -0.02634,0.0476234 0,0.020755 0.00581141,0.0355477 0.0174845,0.0441768 0.0115473,0.00862906 0.0273463,0.0128807 0.0471957,0.0128807 0.0226418,0 0.0422648,-0.0037988 0.0591707,-0.0114216l0.000679255 -0.107398zm-0.159298 -0.135298c0.0427176,-0.0186166 0.0805043,-0.0279249 0.113234,-0.0279249 0.0335099,0 0.0596235,0.00875485 0.0783408,0.0262394 0.0187424,0.0174845 0.0280256,0.0428182 0.0277992,0.0759005l-0.0016604 0.136631c-0.000226418,0.0110945 0.00010063,0.0200758 0.000779886,0.0269186 0.000779886,0.00671708 0.00279249,0.0120002 0.0059372,0.0155726 0.0031447,0.00359754 0.0079498,0.00616361 0.0143398,0.00752212 0.0062894,0.00145914 0.0148178,0.00223903 0.0255601,0.00246545l0.00168556 0.0128807c-0.00940895,0.00369817 -0.0209563,0.00739634 -0.0345162,0.0110945 -0.01356,0.00382396 -0.0227676,0.00561015 -0.0275727,0.00561015 -0.0212079,0 -0.0357741,-0.0109939 -0.0437239,-0.0328558 -0.0306168,0.0220884 -0.0595229,0.0331829 -0.086668,0.0331829 -0.030491,0 -0.0549191,-0.00749697 -0.0734099,-0.0225161 -0.0184908,-0.0149185 -0.0276985,-0.0361012 -0.0276985,-0.0635733 0,-0.0336106 0.0150191,-0.0585166 0.0450824,-0.074542 0.0301388,-0.0159248 0.0773345,-0.0238746 0.141788,-0.0238746l0.000352207 -0.0256608c0.000201261,-0.0245538 -0.00606298,-0.0427176 -0.0187424,-0.0544914 -0.0127801,-0.0118744 -0.0322772,-0.0178116 -0.0585166,-0.0178116 -0.01995,0 -0.0448309,0.0037988 -0.074869,0.0111951l-0.00752212 -0.0219626zm0.599959 0.0361012c0.0031447,0.010541 0.00460384,0.0222896 0.00460384,0.0354219l0 0.11726c0,0.0256608 0.000226418,0.0461642 0.000679255,0.0617619 0.000427679,0.0059372 0.00334596,0.00973599 0.00850327,0.0115473l0.0331829 0.00950958 0.000679255 0.0134593c-0.0266922,-0.000679255 -0.0507932,-0.0010063 -0.0722023,-0.0010063 -0.0215098,0 -0.0453843,0.000327049 -0.0716237,0.0010063l-0.00133335 -0.0134593 0.0312709 -0.00918253c0.00626424,-0.00223903 0.00963536,-0.00571078 0.00973599,-0.010541 0.000226418,-0.00301891 0.000352207,-0.00996241 0.000352207,-0.0207299l0 -0.143147c0,-0.0269186 -0.00606298,-0.0463152 -0.0183902,-0.0579631 -0.0122266,-0.0117738 -0.0303652,-0.0175852 -0.0544662,-0.0175852 -0.0212079,0 -0.042944,0.00636487 -0.0650324,0.0190443l0 0.143474c0,0.0273715 0.000226418,0.0524788 0.000679255,0.0752212 0.000226418,0.00661645 0.00246545,0.0103146 0.00684287,0.0112203l0.0348433 0.0101888 0.000679255 0.0134593c-0.0271199,-0.000679255 -0.0514473,-0.0010063 -0.0729822,-0.0010063 -0.0214091,0 -0.0468435,0.000327049 -0.0761018,0.0010063l-0.00135851 -0.0134593 0.0377867 -0.0111951c0.00548436,-0.00158493 0.00830201,-0.00493089 0.00852843,-0.010214 0.000226418,-0.0115473 0.000327049,-0.0249815 0.000327049,-0.0403528l0 -0.111977c0,-0.0287048 -0.000452837,-0.0552713 -0.00133335,-0.0798251l-0.0436233 -0.0118744 -0.00168556 -0.0110945c0.0361012,-0.00706929 0.0707432,-0.014692 0.103825,-0.0229941l0.00324533 0.00226418 0 0.0381138c0.0358747,-0.0269186 0.0699382,-0.040378 0.102115,-0.040378 0.0394723,0 0.0679255,0.0152455 0.0854101,0.0456359 0.0345414,-0.0303904 0.0721017,-0.0456359 0.112681,-0.0456359 0.0303652,0 0.0542398,0.00852843 0.0713973,0.0257865 0.0171575,0.0171575 0.0257865,0.0417113 0.0257865,0.0736615l0 0.116354c0,0.0275727 0.000226418,0.0478749 0.000654098,0.0610827 0.000452837,0.00583657 0.00337112,0.00966052 0.00885548,0.0114467l0.0364534 0.0111951 0.000654098 0.0134593c-0.0289061,-0.000679255 -0.0540134,-0.0010063 -0.0755483,-0.0010063 -0.0216355,0 -0.0455101,0.000327049 -0.0716237,0.0010063l-0.00123272 -0.0134593 0.0325036 -0.00950958c0.00505668,-0.00181135 0.00784917,-0.00515731 0.00852843,-0.010214 0.000226418,-0.00301891 0.000327049,-0.00996241 0.000327049,-0.0207299l0 -0.143147c0,-0.0269186 -0.00626424,-0.0463152 -0.0187173,-0.0579631 -0.012453,-0.0117738 -0.0309439,-0.0175852 -0.0551455,-0.0175852 -0.0245538,0 -0.0474221,0.00782402 -0.0687306,0.0236482zm0.432585 -0.0253337l-0.00168556 -0.0137864c0.0439503,-0.00651582 0.0880013,-0.0137864 0.132052,-0.0216355l0.00291828 0.00269186c-0.00259123,0.0382144 -0.00392459,0.0777873 -0.00392459,0.118467l0 0.0801521c0,0.0289312 0.000226418,0.0522524 0.000679255,0.0699633 0.000226418,0.00639003 0.00324533,0.0103146 0.00918253,0.0117738l0.0522524 0.01356 0.000880516 0.0131071c-0.0404534,-0.000679255 -0.0713973,-0.0010063 -0.0929322,-0.0010063 -0.0214091,0 -0.052353,0.000327049 -0.09258,0.0010063l-0.00135851 -0.0131071 0.0535857 -0.01356c0.00571078,-0.00145914 0.00862906,-0.00493089 0.00885548,-0.0104404 0.000452837,-0.017711 0.000679255,-0.0374345 0.000679255,-0.0591707l0 -0.0544914c0,-0.044051 -0.000452837,-0.0829446 -0.00135851,-0.116907l-0.0672463 -0.00661645zm0.300759 0.204355c0.0114216,0 0.0207299,0.00357238 0.0281262,0.0106417 0.00729571,0.00706929 0.0109939,0.0164782 0.0109939,0.0280256 0,0.011648 -0.00369817,0.0210821 -0.0109939,0.0284784 -0.00739634,0.00727055 -0.0167047,0.0109687 -0.0281262,0.0109687 -0.0120002,0 -0.0216355,-0.00369817 -0.0289312,-0.0109687 -0.00716992,-0.00739634 -0.0107423,-0.0168304 -0.0107423,-0.0284784 0,-0.0115473 0.00357238,-0.0209563 0.0107423,-0.0280256 0.00729571,-0.00706929 0.0169311,-0.0106417 0.0289312,-0.0106417zm0 -0.233513c0.0114216,0 0.0207299,0.00359754 0.0281262,0.0106417 0.00729571,0.00706929 0.0109939,0.0164782 0.0109939,0.0280256 0,0.0116731 -0.00369817,0.0210821 -0.0109939,0.0284784 -0.00739634,0.00729571 -0.0167047,0.0109939 -0.0281262,0.0109939 -0.0120002,0 -0.0216355,-0.00369817 -0.0289312,-0.0109939 -0.00716992,-0.00739634 -0.0107423,-0.0168053 -0.0107423,-0.0284784 0,-0.0115473 0.00357238,-0.0209563 0.0107423,-0.0280256 0.00729571,-0.00704413 0.0169311,-0.0106417 0.0289312,-0.0106417zm0.0818377 0.0291577l-0.00168556 -0.0137864c0.0439503,-0.00651582 0.0880013,-0.0137864 0.132052,-0.0216355l0.00291828 0.00269186c-0.00259123,0.0382144 -0.00392459,0.0777873 -0.00392459,0.118467l0 0.0801521c0,0.0289312 0.000226418,0.0522524 0.000679255,0.0699633 0.000226418,0.00639003 0.00324533,0.0103146 0.00918253,0.0117738l0.0522524 0.01356 0.000880516 0.0131071c-0.0404534,-0.000679255 -0.0713973,-0.0010063 -0.0929322,-0.0010063 -0.0214091,0 -0.052353,0.000327049 -0.09258,0.0010063l-0.00135851 -0.0131071 0.0535857 -0.01356c0.00571078,-0.00145914 0.00862906,-0.00493089 0.00885548,-0.0104404 0.000452837,-0.017711 0.000679255,-0.0374345 0.000679255,-0.0591707l0 -0.0544914c0,-0.044051 -0.000452837,-0.0829446 -0.00135851,-0.116907l-0.0672463 -0.00661645zm0.327426 0.0430447c-0.031598,-0.0163776 -0.0531329,-0.0328558 -0.0645544,-0.0492083 -0.0115473,-0.0164782 -0.0172581,-0.0356483 -0.0172581,-0.0575103 0,-0.0328558 0.01356,-0.0599757 0.0405792,-0.0812842 0.0269941,-0.0212833 0.0606298,-0.0320508 0.100983,-0.0320508 0.0363276,0 0.0663658,0.00862906 0.0901397,0.0256608 0.0237488,0.0170569 0.0356483,0.0392459 0.0356483,0.0663658 0,0.0404786 -0.0288055,0.0774603 -0.0864415,0.11097 0.0438497,0.0212079 0.0735357,0.0414849 0.089234,0.0605544 0.0155977,0.0191701 0.0234217,0.0420384 0.0234217,0.068479 0,0.036554 -0.0160254,0.0668186 -0.0483026,0.0907938 -0.0321766,0.0240004 -0.0705168,0.0360005 -0.115247,0.0360005 -0.0448309,0 -0.0814855,-0.010214 -0.109964,-0.0307174 -0.0284784,-0.0204028 -0.0426925,-0.0476485 -0.0426925,-0.0816113 0,-0.0510196 0.0347427,-0.0931586 0.104454,-0.126442zm0.0233211 0.0122014c-0.0449566,0.0255601 -0.0673721,0.0611078 -0.0673721,0.106392 0,0.0287048 0.00862906,0.0514473 0.0257865,0.0685042 0.0171575,0.0169059 0.0408056,0.0254343 0.0707432,0.0254343 0.0273463,0 0.0503152,-0.00762276 0.0688312,-0.0228683 0.0184908,-0.0152455 0.0277992,-0.0349691 0.0277992,-0.0592965 0,-0.0232205 -0.00852843,-0.0431705 -0.0253337,-0.0598751 -0.0168304,-0.0168053 -0.0503404,-0.0362018 -0.100454,-0.0582902zm0.0514473 -0.0416862c0.0348684,-0.0252331 0.0522524,-0.0548184 0.0522524,-0.0886806 0,-0.0243274 -0.0069435,-0.0431453 -0.0209563,-0.0563782 -0.0140128,-0.0132329 -0.0325288,-0.0198494 -0.0554977,-0.0198494 -0.0231953,0 -0.0422648,0.00606298 -0.0570575,0.0180632 -0.014692,0.011975 -0.0220884,0.0284533 -0.0220884,0.0492083 0,0.0208557 0.00797496,0.0381138 0.0238746,0.0519001 0.0160254,0.0137864 0.0424912,0.0290319 0.0794729,0.0457365z"/>
 </g>
</svg>
