<?xml version="1.0" encoding="UTF-8"?>
<!DOCTYPE svg PUBLIC "-//W3C//DTD SVG 1.1//EN" "http://www.w3.org/Graphics/SVG/1.1/DTD/svg11.dtd">
<!-- Creator: CorelDRAW -->
<svg xmlns="http://www.w3.org/2000/svg" xml:space="preserve" width="26.8087mm" height="22.4022mm" style="shape-rendering:geometricPrecision; text-rendering:geometricPrecision; image-rendering:optimizeQuality; fill-rule:evenodd; clip-rule:evenodd"
viewBox="0 0 25.2054 21.0624"
 xmlns:xlink="http://www.w3.org/1999/xlink">
 <defs>
  <style type="text/css">
   <![CDATA[
    .str0 {stroke:#FEFEFE;stroke-width:0.0716428}
    .fil0 {fill:#FEFEFE}
   ]]>
  </style>
 </defs>
 <g id="Layer_x0020_1">
  <metadata id="CorelCorpID_0Corel-Layer"/>
  <g id="_586267944">
   <path id="_91990640" class="fil0 str0" d="M8.02728 0.0231288c1.71153,2.02433 3.68331,2.72769 5.97719,2.43191 2.40455,0.053309 4.08486,1.198 5.02712,2.91103l2.9665 -1.40832 -0.635571 -1.0265 3.762 -0.155508 -2.27771 2.65135 -0.539013 -0.952135 -3.04002 1.40324 0.254511 0.402497c1.30198,0.273973 1.6742,1.65709 0.672803,2.48851 -0.014479,1.98108 -0.955896,3.6975 -2.11544,5.31464 -1.4101,1.78458 -1.52387,3.46302 -0.912929,5.0826 -0.488713,-0.62711 -0.92816,-1.28919 -0.975828,-2.23606l-3.81634 -1.09034 3.76247 0.470661c0.846927,-2.62972 3.25965,-5.67699 2.87333,-7.37535 -0.383505,-0.0440011 -0.594673,-0.151653 -0.706462,-0.245579 -0.836773,1.00178 -1.90126,1.89496 -3.62116,2.94732 -0.284127,0.424968 -1.05631,0.927408 -2.34155,1.51108 0.35671,0.625605 0.00601724,1.26729 -1.00554,1.95918 -1.26823,0.927408 -1.78524,1.84758 -1.77227,2.75129 0.0673179,1.18925 0.548885,2.21604 1.20571,3.17513 -2.58375,-1.93379 -4.25325,-4.07696 -3.48239,-6.76385 0.671393,-1.51766 1.67608,-2.83506 3.01266,-3.86504 1.00601,-0.482226 2.116,-0.749523 3.34766,-0.76372 0.903339,-0.815901 2.73343,-1.10539 4.49375,-1.8488l0.157859 -0.762592 -0.269554 -0.476114 -6.84471 2.81099 6.54488 -3.43378c-0.680325,-1.38773 -2.00854,-2.01173 -3.71471,-2.2858 -1.4054,-0.172996 -2.83036,-0.587621 -4.26359,-1.09702l-1.98146 3.41253 1.49557 -3.68989c-0.540518,-0.656726 -0.873629,-1.46341 -1.23777,-2.24753z"/>
   <path id="_91990376" class="fil0 str0" d="M6.44014 15.9462c-0.0816089,-0.0699505 -0.0208723,-1.12128 0.604357,-2.39881 0.346368,-0.708248 0.735796,-1.44527 0.755728,-1.48692 0.572954,-1.19066 1.07991,-1.32915 1.72009,-1.51804 0.22057,-0.978554 0.0456934,-1.96313 -0.49285,-2.95296 -0.36724,-1.06712 -0.415848,-1.46868 -2.28364,-1.07793 -2.07313,1.02951 -2.04934,2.59747 0.546253,4.82536 -0.993503,1.66979 -1.14083,3.18087 -0.849936,4.6093z"/>
   <path id="_91990352" class="fil0 str0" d="M0.0365736 14.4021c0.0770959,-0.776506 0.574835,-1.37024 1.3661,-1.66941 0.82173,-0.253664 1.68455,-0.0212484 2.24725,-0.210698l0.569382 -0.433524 1.19141 -1.30038c0.616297,-0.536381 0.738053,-0.375514 0.301426,0.591758 0.564587,0.0212484 0.508927,-0.110755 1.06703,-0.232322l0.103891 0.20374 -0.351069 0.22245 -0.160115 0.287699 0.63087 -0.295785 0.009684 0.0777541 0.0903527 0.109721 -0.716052 0.565715c-0.00141029,0.936057 -0.529423,1.35783 -1.7498,1.10501l-2.88621 1.52876c-0.912929,0.21333 -1.47479,0.0183338 -1.71416,-0.550484z"/>
  </g>
 </g>
</svg>
