<?xml version="1.0" encoding="UTF-8"?>
<!DOCTYPE svg PUBLIC "-//W3C//DTD SVG 1.1//EN" "http://www.w3.org/Graphics/SVG/1.1/DTD/svg11.dtd">
<!-- Creator: CorelDRAW -->
<svg xmlns="http://www.w3.org/2000/svg" xml:space="preserve" width="122.34mm" height="39.0259mm" style="shape-rendering:geometricPrecision; text-rendering:geometricPrecision; image-rendering:optimizeQuality; fill-rule:evenodd; clip-rule:evenodd"
viewBox="0 0 115.861 36.9592"
 xmlns:xlink="http://www.w3.org/1999/xlink">
 <defs>
  <style type="text/css">
   <![CDATA[
    .str1 {stroke:#606062;stroke-width:0.0721647}
    .str2 {stroke:#FEFEFE;stroke-width:0.0721647}
    .str0 {stroke:#848688;stroke-width:0.668139}
    .fil2 {fill:none}
    .fil5 {fill:#FEFEFE}
    .fil4 {fill:#633F83}
    .fil1 {fill:#373435;fill-rule:nonzero}
    .fil3 {fill:#606062;fill-rule:nonzero}
    .fil6 {fill:white;fill-rule:nonzero}
    .fil0 {fill:#633F83;fill-rule:nonzero}
   ]]>
  </style>
 </defs>
 <g id="Layer_x0020_1">
  <metadata id="CorelCorpID_0Corel-Layer"/>
  <path class="fil0" d="M46.0204 19.4515l0 -0.525609c0.357698,-0.0694183 0.620503,-0.149728 0.795706,-0.233636 0.175298,-0.0840027 0.306653,-0.204467 0.390655,-0.357793 0.0876015,-0.153232 0.127756,-0.357698 0.127756,-0.616904 0,-0.240928 -0.0255702,-0.503732 -0.0840027,-0.784815 -0.0583379,-0.281082 -0.138647,-0.598626 -0.244527,-0.945433l-0.397948 -1.37984 -4.98268 0 -0.364991 1.04771c-0.182495,0.525609 -0.306653,0.927155 -0.361392,1.19725 -0.0584326,0.270191 -0.0876015,0.518412 -0.0876015,0.737368 0,0.427117 0.109478,0.741061 0.328529,0.941835 0.215358,0.200773 0.551179,0.332128 1.00017,0.394254l0 0.525609 -4.56655 0 0 -0.525609c0.397853,-0.062126 0.74466,-0.295762 1.04033,-0.693615 0.295667,-0.397853 0.584042,-0.971004 0.861431,-1.71197l4.46076 -11.838 1.69009 0 3.6357 11.9256c0.171604,0.554873 0.321237,0.978296 0.452687,1.27027 0.131355,0.292068 0.291973,0.52201 0.478162,0.686322 0.182495,0.164217 0.438008,0.284681 0.759245,0.361392l0 0.525609 -4.93154 0zm-4.10666 -5.77479l4.47165 0 -2.03321 -6.89921 -2.43845 6.89921zm17.3245 -5.8515c0,-0.682629 -0.00729223,-1.16079 -0.0182779,-1.43098 -0.0109857,-0.270097 -0.0365559,-0.500039 -0.0840027,-0.689921 -0.0474469,-0.189787 -0.109478,-0.335822 -0.193386,-0.4453 -0.0803093,-0.105879 -0.193481,-0.189787 -0.332223,-0.255512 -0.138742,-0.0657248 -0.390561,-0.127756 -0.751952,-0.193481l0 -0.554873 2.58808 -0.105879 0.631489 0 0 12.3819c0,0.558566 0.0109857,0.95282 0.0291689,1.19365 0.0219714,0.237329 0.0694183,0.43081 0.142435,0.573151 0.0693236,0.142341 0.182495,0.255512 0.335822,0.346807 0.153326,0.0876015 0.423423,0.17151 0.806692,0.251819l0 0.554873 -2.52236 0.105879 -0.642474 0 0.127756 -1.75222 -0.160619 -0.0437534c-0.448993,0.478162 -0.839554,0.835955 -1.17178,1.07688 -0.332128,0.237234 -0.682534,0.427022 -1.05861,0.569362 -0.372283,0.142435 -0.773829,0.215452 -1.20095,0.215452 -1.17168,0 -2.07336,-0.445395 -2.70854,-1.3324 -0.631489,-0.887001 -0.949032,-2.16835 -0.949032,-3.84386 0,-1.16808 0.204372,-2.16096 0.620503,-2.97864 0.412532,-0.817677 0.971004,-1.4236 1.67191,-1.82514 0.700812,-0.397853 1.49292,-0.598626 2.36903,-0.598626 0.47087,0 0.897987,0.0401546 1.28495,0.113172 0.383268,0.0766158 0.777523,0.19708 1.18636,0.368684l0 -1.70108zm0 5.28564c0,-0.558471 -0.0255702,-1.00387 -0.0767105,-1.33969 -0.0474469,-0.332128 -0.131355,-0.613211 -0.251819,-0.843153 -0.116865,-0.226343 -0.27379,-0.419824 -0.474563,-0.576749 -0.200773,-0.15702 -0.419824,-0.270191 -0.657059,-0.343209 -0.240928,-0.0693236 -0.525704,-0.105785 -0.861525,-0.105785 -0.912571,0 -1.60609,0.364991 -2.08435,1.09507 -0.478162,0.730076 -0.71909,1.78139 -0.71909,3.15025 0,1.36886 0.197174,2.40918 0.591334,3.12098 0.390655,0.715491 0.985588,1.06959 1.78508,1.06959 0.31385,0 0.573056,-0.0255702 0.781121,-0.0803093 0.204467,-0.0511403 0.408839,-0.138742 0.609612,-0.255512 0.197174,-0.116865 0.401546,-0.281082 0.609612,-0.485549 0.204467,-0.208065 0.357698,-0.397853 0.452687,-0.569457 0.0984925,-0.167911 0.17151,-0.364991 0.218956,-0.58764 0.0511403,-0.219051 0.0767105,-0.503732 0.0767105,-0.854233l0 -2.3946zm4.67243 -3.88392l3.04796 0 0 5.44266c0,0.83586 0.0328624,1.47104 0.0948937,1.90545 0.0657248,0.434409 0.160619,0.762938 0.288375,0.981895 0.127756,0.222745 0.310346,0.408839 0.54758,0.558566 0.233636,0.149633 0.558471,0.22265 0.971004,0.22265 0.27379,0 0.532901,-0.0511403 0.781121,-0.160619 0.251914,-0.105879 0.529303,-0.292068 0.835955,-0.558471 0.306653,-0.270191 0.525609,-0.532996 0.657059,-0.799494 0.13145,-0.262805 0.19708,-0.569457 0.19708,-0.919863l0 -4.00808c0,-0.408839 -0.010891,-0.715397 -0.0327677,-0.919863 -0.0219714,-0.208065 -0.0548338,-0.372283 -0.105879,-0.49644 -0.0511403,-0.127756 -0.109573,-0.226343 -0.175203,-0.306653 -0.0694183,-0.0766158 -0.164312,-0.149633 -0.288375,-0.215358 -0.127756,-0.0620313 -0.328529,-0.131355 -0.606013,-0.200773l0 -0.525609 3.04806 0 0 7.30426c0,0.551274 0.0109857,0.945433 0.0328624,1.18636 0.0218767,0.244621 0.0657248,0.438102 0.138742,0.580443 0.0693236,0.142341 0.182495,0.255512 0.332128,0.346807 0.149633,0.0876015 0.416131,0.17151 0.799399,0.251819l0 0.554873 -2.44574 0.105879 -0.653365 0 0.0620313 -1.75222 -0.160619 -0.0437534c-0.591334,0.642474 -1.1535,1.11334 -1.69369,1.4127 -0.536595,0.299266 -1.07688,0.448993 -1.62077,0.448993 -0.649766,0 -1.18276,-0.127756 -1.60249,-0.386962 -0.419824,-0.255512 -0.733769,-0.638781 -0.941835,-1.1499 -0.208065,-0.507331 -0.310251,-1.22652 -0.310251,-2.15367l0 -4.04094c0,-0.598626 -0.0218767,-1.01106 -0.0693236,-1.23741 -0.0474469,-0.22265 -0.135048,-0.401546 -0.266498,-0.532996 -0.13145,-0.131355 -0.419824,-0.255512 -0.861431,-0.368684l0 -0.525609zm15.2036 7.55248c0,0.613305 0.0292636,1.03673 0.0876962,1.27766 0.0547391,0.237234 0.164217,0.419824 0.324836,0.543887 0.160619,0.124157 0.423423,0.233636 0.788508,0.324931l0 0.525609 -4.249 0 0 -0.525609c0.357698,-0.091295 0.605918,-0.186189 0.74466,-0.288375 0.138742,-0.0985872 0.237234,-0.219051 0.29936,-0.357793 0.0620313,-0.138647 0.102186,-0.328529 0.127756,-0.565764 0.0254755,-0.240928 0.0401546,-0.551179 0.0401546,-0.934542l0 -8.9542c0,-0.682629 -0.00738694,-1.16079 -0.0182779,-1.43098 -0.0109857,-0.270097 -0.0401546,-0.500039 -0.0840027,-0.689921 -0.0474469,-0.189787 -0.113172,-0.335822 -0.193481,-0.4453 -0.083908,-0.105879 -0.193386,-0.189787 -0.332128,-0.255512 -0.138742,-0.0657248 -0.390561,-0.127756 -0.751952,-0.193481l0 -0.554873 2.57709 -0.105879 0.638781 0 0 12.6301zm5.94639 0c0,0.613305 0.0292636,1.03673 0.0876962,1.27766 0.0547391,0.237234 0.164217,0.419824 0.324836,0.543887 0.160619,0.124157 0.423423,0.233636 0.788508,0.324931l0 0.525609 -4.249 0 0 -0.525609c0.357698,-0.091295 0.605918,-0.186189 0.74466,-0.288375 0.138742,-0.0985872 0.237234,-0.219051 0.29936,-0.357793 0.0620313,-0.138647 0.102186,-0.328529 0.127756,-0.565764 0.0254755,-0.240928 0.0401546,-0.551179 0.0401546,-0.934542l0 -8.9542c0,-0.682629 -0.00738694,-1.16079 -0.0182779,-1.43098 -0.0109857,-0.270097 -0.0401546,-0.500039 -0.0840027,-0.689921 -0.0474469,-0.189787 -0.113172,-0.335822 -0.193481,-0.4453 -0.083908,-0.105879 -0.193386,-0.189787 -0.332128,-0.255512 -0.138742,-0.0657248 -0.390561,-0.127756 -0.751952,-0.193481l0 -0.554873 2.57709 -0.105879 0.638781 0 0 12.6301zm9.27553 1.14261l-0.160619 -0.0438481c-0.620598,0.635182 -1.20464,1.08418 -1.74853,1.34698 -0.547486,0.266498 -1.12424,0.397948 -1.73754,0.397948 -0.543887,0 -1.02205,-0.105879 -1.43458,-0.317638 -0.412437,-0.208065 -0.730076,-0.503732 -0.952726,-0.887001 -0.219051,-0.37967 -0.332223,-0.821371 -0.332223,-1.32141 0,-1.04033 0.514718,-1.84342 1.54775,-2.40928 1.02944,-0.565764 2.5735,-0.897987 4.63597,-0.989187l0 -0.697213c0,-0.741061 -0.073017,-1.3251 -0.215358,-1.75212 -0.142435,-0.427117 -0.365085,-0.741061 -0.671738,-0.941835 -0.306558,-0.200773 -0.71909,-0.29936 -1.23011,-0.29936 -0.558471,0 -1.00387,0.146034 -1.34329,0.438102 -0.339515,0.291973 -0.595027,0.730076 -0.762938,1.31772l-1.40172 0 0 -1.39073c0.682629,-0.357793 1.25199,-0.620598 1.70837,-0.788508 0.456285,-0.167911 0.912571,-0.299266 1.36886,-0.394254 0.456285,-0.0948937 0.919863,-0.145939 1.39073,-0.145939 0.708199,0 1.27396,0.113172 1.70108,0.33942 0.427117,0.22265 0.748354,0.565858 0.963711,1.02944 0.211664,0.463578 0.321237,1.16448 0.321237,2.09893l0 3.7197c0,0.529303 0.00359876,0.901585 0.010891,1.11694 0.00729223,0.219051 0.0255702,0.419824 0.0620313,0.606013 0.0365559,0.186189 0.091295,0.332128 0.160619,0.441701 0.073017,0.113172 0.175298,0.208065 0.317638,0.284681 0.138647,0.0803093 0.364991,0.160619 0.678935,0.244621l0 0.525609 -2.93119 0 0.0547391 -1.52948zm-0.182495 -3.34732c-1.44917,0.0145845 -2.53334,0.208065 -3.25243,0.576749 -0.719185,0.372283 -1.08058,0.930754 -1.08058,1.67911 0,0.408839 0.0840027,0.726382 0.24822,0.963711 0.164312,0.233636 0.368684,0.397853 0.620598,0.485454 0.24822,0.091295 0.543887,0.135048 0.887001,0.135048 0.481856,0 0.923557,-0.11677 1.31781,-0.354005 0.397853,-0.233636 0.704506,-0.532996 0.927155,-0.897987 0.22265,-0.365085 0.332223,-0.722784 0.332223,-1.08058l0 -1.5075zm7.58165 -3.70152l0.149728 0.0438481c0.427022,-0.427117 0.781121,-0.751952 1.05491,-0.96731 0.27379,-0.219051 0.540288,-0.390655 0.795801,-0.525704 0.255512,-0.131355 0.49644,-0.226249 0.722784,-0.281082 0.22265,-0.0583379 0.452592,-0.0876015 0.689826,-0.0876015 0.711893,0 1.29224,0.164312 1.74123,0.492841 0.448993,0.328529 0.759245,0.832262 0.930849,1.5076 0.536595,-0.540288 0.96731,-0.941835 1.29953,-1.19735 0.332128,-0.255512 0.671643,-0.452592 1.01476,-0.595027 0.346807,-0.138647 0.71909,-0.208065 1.12064,-0.208065 0.474563,0 0.887096,0.0694183 1.23381,0.208065 0.346807,0.142435 0.638875,0.3541 0.87611,0.642474 0.240928,0.288375 0.416131,0.649766 0.525704,1.08777 0.109478,0.434409 0.164217,1.01845 0.164217,1.75222l0 4.03355c0,0.540288 0.0182779,0.916264 0.0547391,1.12073 0.0365559,0.208065 0.0876015,0.368684 0.153326,0.481761 0.0693236,0.113172 0.171604,0.211759 0.306653,0.295762 0.135048,0.0803093 0.361392,0.164217 0.682629,0.24822l0 0.525609 -4.20156 0 0 -0.525609c0.277389,-0.0840027 0.478162,-0.15702 0.598626,-0.222745 0.120464,-0.0656301 0.22265,-0.153232 0.306653,-0.266403 0.0803093,-0.116865 0.146034,-0.292068 0.189787,-0.529303 0.0474469,-0.240928 0.0694183,-0.60232 0.0694183,-1.08787l0 -2.79974c0,-0.606013 -0.0146792,-1.10605 -0.0474469,-1.504 -0.0328624,-0.394159 -0.0803093,-0.711798 -0.149728,-0.945433 -0.0657248,-0.237234 -0.149633,-0.41973 -0.244527,-0.558471 -0.0985872,-0.135048 -0.204467,-0.251819 -0.328529,-0.350406 -0.120464,-0.102186 -0.262805,-0.178896 -0.427117,-0.237329 -0.164312,-0.0547391 -0.37967,-0.083908 -0.649766,-0.083908 -0.288375,0 -0.551179,0.0584326 -0.799399,0.171604 -0.244621,0.113077 -0.511025,0.306558 -0.803093,0.576749 -0.288375,0.270097 -0.49644,0.543887 -0.624196,0.817677 -0.127756,0.273696 -0.193481,0.598626 -0.193481,0.96731l0 3.9058c0,0.540288 0.0182779,0.916264 0.0547391,1.12073 0.0365559,0.208065 0.0876015,0.368684 0.153326,0.481761 0.0693236,0.113172 0.171604,0.211759 0.306653,0.295762 0.135048,0.0803093 0.364991,0.164217 0.682629,0.24822l0 0.525609 -4.20156 0 0 -0.525609c0.277389,-0.0840027 0.478162,-0.15702 0.598626,-0.222745 0.120464,-0.0656301 0.22265,-0.153232 0.306653,-0.266403 0.0803093,-0.116865 0.146034,-0.292068 0.189787,-0.529303 0.0474469,-0.240928 0.0694183,-0.60232 0.0694183,-1.08787l0 -2.79974c0,-0.635182 -0.0146792,-1.1535 -0.0511403,-1.55145 -0.0364612,-0.397853 -0.091295,-0.71909 -0.167911,-0.963617 -0.073017,-0.240928 -0.171604,-0.438102 -0.288375,-0.587735 -0.11677,-0.149633 -0.237234,-0.262805 -0.357698,-0.343114 -0.120464,-0.0767105 -0.262899,-0.135048 -0.427117,-0.175203 -0.164312,-0.0401546 -0.350406,-0.0584326 -0.554873,-0.0584326 -0.291973,0 -0.569457,0.0657248 -0.824969,0.19708 -0.255512,0.13145 -0.518317,0.321237 -0.784815,0.573151 -0.270097,0.24822 -0.47087,0.511025 -0.605918,0.781121 -0.135143,0.270191 -0.204467,0.562165 -0.204467,0.87611l0 4.01168c0,0.40524 0.0109857,0.715491 0.0328624,0.92725 0.0218767,0.215358 0.0547391,0.383268 0.102186,0.503732 0.0474469,0.120464 0.105879,0.219051 0.175203,0.295667 0.073017,0.073017 0.175298,0.146034 0.306653,0.211759 0.13145,0.0693236 0.328529,0.138647 0.595027,0.208065l0 0.525609 -4.19427 0 0 -0.525609c0.270191,-0.0840027 0.467271,-0.15702 0.584042,-0.222745 0.116865,-0.0656301 0.219051,-0.153232 0.303054,-0.266403 0.0876015,-0.116865 0.149633,-0.288375 0.193386,-0.525704 0.0438481,-0.233636 0.0657248,-0.60232 0.0657248,-1.10236l0 -4.66154c0,-0.456285 -0.00729223,-0.824969 -0.0218767,-1.10236 -0.0145845,-0.277389 -0.0657248,-0.500134 -0.149633,-0.668044 -0.0876015,-0.167911 -0.215358,-0.291973 -0.390655,-0.372283 -0.175203,-0.0840027 -0.423423,-0.153326 -0.74466,-0.211759l0 -0.565764 2.50417 -0.0948937 0.649766 0 -0.116865 1.74114z"/>
  <path class="fil1" d="M38.1249 29.8536c0,0.134101 0,0.253429 0.00113645,0.360161 0.00113645,0.106826 0.00340936,0.203425 0.00568226,0.289795 0.0022729,0.0693236 0.0306842,0.112509 0.0863704,0.129556l0.369252 0.110141 0.0102281 0.143193c-0.263657,-0.00681871 -0.528356,-0.0102281 -0.793149,-0.0102281 -0.269244,0 -0.545308,0.00340936 -0.827148,0.0102281l-0.012501 -0.143193 0.409028 -0.122642c0.0556862,-0.0159103 0.0852339,-0.0500039 0.0897797,-0.103417 0.0022729,-0.0886433 0.00454581,-0.188651 0.00568226,-0.29775 0.00113645,-0.110141 0.00113645,-0.231742 0.00113645,-0.364706l0 -2.69964c0,-0.113645 0,-0.214695 -0.00113645,-0.305611 -0.00113645,-0.0909162 -0.00340936,-0.173877 -0.00568226,-0.24661 -0.0022729,-0.0578644 -0.0284113,-0.0953673 -0.0795516,-0.113551l-0.412437 -0.129556 -0.00681871 -0.143193c0.286386,0.00909162 0.565858,0.0136374 0.838512,0.0136374 0.0545497,0 0.122737,-0.0022729 0.205698,-0.00568226 0.082961,-0.00340936 0.184105,-0.00681871 0.302202,-0.0102281 0.1216,-0.00454581 0.222745,-0.00681871 0.303433,-0.00909162 0.0805934,-0.00113645 0.144235,-0.0022729 0.191966,-0.0022729 0.511309,0 0.894198,0.095462 1.1499,0.286386 0.255607,0.189693 0.384026,0.468124 0.384026,0.833966 0,0.329476 -0.0875068,0.597679 -0.263657,0.802146 -0.174919,0.204561 -0.441985,0.362434 -0.802146,0.473806 0.142057,0.212517 0.272748,0.419256 0.390845,0.618135 0.119327,0.198784 0.2307,0.381753 0.33298,0.54758 0.102186,0.164786 0.195375,0.311388 0.280609,0.438576 0.0852339,0.126146 0.164786,0.226154 0.237424,0.300023 0.0375029,0.0375029 0.0761423,0.07046 0.113645,0.0977349 0.0375029,0.0284113 0.0772787,0.0510456 0.118191,0.0692289 0.0409123,0.0170468 0.0840975,0.0329571 0.129556,0.0465945 0.0454581,0.012501 0.0965037,0.0261384 0.151053,0.0397758l0.0102281 0.146602c-0.159009,0.0204561 -0.294246,0.0306842 -0.402209,0.0306842 -0.0909162,0 -0.17151,-0.0022729 -0.239697,-0.00681871 -0.0693236,-0.00454581 -0.130692,-0.0136374 -0.185242,-0.0261384 -0.0534132,-0.0136374 -0.102281,-0.0306842 -0.146602,-0.0522768 -0.0442269,-0.0215926 -0.0874121,-0.0488674 -0.129461,-0.0818245 -0.0920526,-0.0693236 -0.182969,-0.1681 -0.271612,-0.298792 -0.0885486,-0.129556 -0.180601,-0.2772 -0.276063,-0.441985 -0.0965984,-0.164786 -0.19547,-0.339704 -0.298792,-0.526083 -0.103417,-0.185242 -0.212517,-0.366979 -0.327298,-0.545402 -0.0340936,-0.0534132 -0.0625049,-0.095462 -0.0862757,-0.126051 -0.022729,-0.0318207 -0.0488674,-0.0556862 -0.0772787,-0.0738694 -0.0284113,-0.0181832 -0.060232,-0.0295478 -0.0977349,-0.0363665 -0.0375029,-0.00681871 -0.0852339,-0.0113645 -0.143193,-0.0136374l-0.232878 -0.00681871 0 1.15549zm0 -1.40437c0.135143,0.00681871 0.260153,0.0102281 0.376071,0.0102281 0.38289,0 0.663499,-0.0817298 0.841922,-0.244242 0.178423,-0.162513 0.268108,-0.416983 0.268108,-0.764643 0,-0.335253 -0.0851392,-0.580632 -0.255607,-0.736326 -0.171604,-0.154463 -0.438576,-0.231742 -0.802146,-0.231742 -0.0613684,0 -0.128419,0.0022729 -0.198879,0.00681871 -0.0715965,0.00454581 -0.147644,0.0113645 -0.229469,0.0193197l0 1.94059zm6.54682 -1.06798l-0.13287 0.0193197 -0.243201 -0.876015c-0.274927,-0.0693236 -0.524946,-0.103417 -0.748732,-0.103417 -0.543129,0 -0.970341,0.189693 -1.28163,0.569268 -0.310251,0.37948 -0.465851,0.872606 -0.465851,1.47815 0,0.648819 0.177192,1.16581 0.532901,1.55211 0.354478,0.386299 0.846467,0.579496 1.47474,0.579496 0.352205,0 0.723825,-0.0681871 1.11467,-0.204561l0.0363665 0.151148c-0.436303,0.303338 -0.931701,0.455623 -1.48392,0.455623 -0.716912,0 -1.29754,-0.219335 -1.73953,-0.656775 -0.443122,-0.437439 -0.66473,-1.01353 -0.66473,-1.72816 0,-0.76237 0.243201,-1.36573 0.730644,-1.80999 0.487443,-0.444258 1.12139,-0.665866 1.90308,-0.665866 0.375029,0 0.759055,0.0454581 1.15104,0.136374l0.0238655 0.0272748 -0.206834 1.07603zm1.64975 -0.215926l0 2.68941c0,0.261384 0.0022729,0.479488 0.00681871,0.652229 0.0022729,0.0625049 0.0295478,0.100008 0.082961,0.113645l0.396527 0.115823 0.00681871 0.150012c-0.278336,-0.00681871 -0.505532,-0.0102281 -0.683955,-0.0102281 -0.173877,0 -0.404482,0.00340936 -0.690868,0.0102281l-0.012501 -0.143193 0.409123 -0.122642c0.0578644,-0.0181832 0.0874121,-0.0522768 0.089685,-0.103417 0.00454581,-0.179559 0.00681871,-0.401073 0.00681871,-0.662457l0 -2.69964c0,-0.221513 -0.0022729,-0.405619 -0.00681871,-0.552221 -0.0022729,-0.0578644 -0.0284113,-0.0953673 -0.0794569,-0.113551l-0.412532 -0.129556 -0.00681871 -0.143193c0.286386,0.00909162 0.512445,0.0136374 0.678367,0.0136374 0.100008,0 0.201152,-0.00454581 0.303338,-0.0136374l2.79624 3.49393 0 -2.57018c0,-0.215831 -0.0022729,-0.401073 -0.00681871,-0.556767 -0.0022729,-0.0510456 -0.0306842,-0.0862757 -0.0863704,-0.103322l-0.393118 -0.113645 -0.00681871 -0.150012c0.284113,0.00909162 0.514718,0.0136374 0.690868,0.0136374 0.178328,0 0.405619,-0.00454581 0.683955,-0.0136374l0.012501 0.143193 -0.419256 0.129556c-0.0511403,0.0181832 -0.0772787,0.0556862 -0.0795516,0.113551 -0.00454581,0.146602 -0.00681871,0.330708 -0.00681871,0.553357l0 3.7234 -0.279473 0.0261384 -2.99285 -3.74044zm7.64567 3.71089c-0.27379,0 -0.575992,0.00340936 -0.906699,0.0102281l-0.0136374 -0.143193 0.493125 -0.146508c0.0556862,-0.0159103 0.0840975,-0.0500039 0.0863704,-0.103417 0.00454581,-0.168195 0.00681871,-0.384026 0.00681871,-0.646547l0 -3.32336 -1.17481 0 -0.296614 0.888516 -0.13287 0.022729 -0.0863704 -1.19081 0.022729 -0.0272748c0.546539,0.00909162 1.06912,0.0136374 1.56793,0.0136374l0.890789 0c0.497671,0 1.02262,-0.00454581 1.57484,-0.0136374l0.0193197 0.0272748 -0.209107 1.16808 -0.13287 0.022729 -0.213653 -0.911245 -1.17481 0 0 3.32336c0,0.26252 0.0022729,0.478352 0.00681871,0.646547 0.0022729,0.0534132 0.0306842,0.0875068 0.0862757,0.103417l0.493125 0.146508 0.00568226 0.143193c-0.343114,-0.00681871 -0.647588,-0.0102281 -0.912382,-0.0102281zm2.2498 -4.77547c0.362434,-0.0715965 0.724867,-0.151148 1.08957,-0.238655l0.0306842 0.0261384c-0.0113645,0.209107 -0.0181832,0.506763 -0.0193197,0.893062 -0.00113645,0.385163 -0.00113645,0.821465 -0.00113645,1.30777 0.386299,-0.248788 0.745418,-0.372662 1.0783,-0.372662 0.307884,0 0.553357,0.0863704 0.735095,0.25788 0.181832,0.171604 0.272748,0.423802 0.272748,0.756782l0 1.17367c0,0.255702 0.0022729,0.460168 0.00681871,0.615862 0.0022729,0.0579591 0.0295478,0.0965984 0.0828663,0.115918l0.372756 0.113551 0.00681871 0.136374c-0.293205,-0.00681871 -0.548812,-0.0102281 -0.768147,-0.0102281 -0.218104,0 -0.461305,0.00340936 -0.72714,0.0102281l-0.0136374 -0.136374 0.329476 -0.0965984c0.0534132,-0.0180885 0.0818245,-0.0521821 0.0863704,-0.103322 0.0022729,-0.0306842 0.00340936,-0.100008 0.00340936,-0.209107l0 -1.45097c0,-0.272654 -0.0647778,-0.468124 -0.19547,-0.58622 -0.130597,-0.119327 -0.322658,-0.178423 -0.577128,-0.178423 -0.219335,0 -0.44994,0.0534132 -0.693141,0.161376l0 1.49292c0,0.275021 0.0022729,0.526083 0.00681871,0.754509 0.0022729,0.0613684 0.0295478,0.101144 0.082961,0.115918l0.346523 0.0999131 0.00681871 0.136374c-0.279473,-0.00681871 -0.529492,-0.0102281 -0.748732,-0.0102281 -0.218199,0 -0.477215,0.00340936 -0.773734,0.0102281l-0.0136374 -0.136374 0.376071 -0.110141c0.0579591,-0.0170468 0.0875068,-0.0522768 0.0897797,-0.10569 0.00454581,-0.213653 0.00681871,-0.48517 0.00681871,-0.815783l0 -1.3896c0,-0.452213 0,-0.853381 -0.00113645,-1.20104 -0.00113645,-0.34766 -0.00568226,-0.610085 -0.012501,-0.785099l-0.448804 -0.132965 -0.0170468 -0.109005zm6.81492 4.54259c-0.188556,0.118096 -0.38289,0.20333 -0.58281,0.254471 -0.200016,0.0511403 -0.385257,0.0772787 -0.55563,0.0772787 -0.48858,0 -0.882834,-0.139784 -1.18286,-0.41812 -0.301065,-0.278431 -0.451077,-0.665866 -0.451077,-1.16126 0,-0.493125 0.14092,-0.896471 0.421624,-1.21004 0.280609,-0.31243 0.655543,-0.46926 1.1248,-0.46926 0.394254,0 0.701002,0.117055 0.920337,0.352205 0.219335,0.234109 0.32834,0.557903 0.32834,0.971477 0,0.0613684 -0.00340936,0.12501 -0.0102281,0.189787l-2.1031 0c0,0.476079 0.112509,0.81692 0.336295,1.02139 0.223881,0.205698 0.57495,0.307979 1.05217,0.307979 0.212422,0 0.439712,-0.0204561 0.681682,-0.060232l0.0204561 0.144329zm-0.658953 -1.69303l0 -0.100008c0,-0.313566 -0.0500039,-0.537352 -0.148875,-0.67259 -0.0988713,-0.135238 -0.246515,-0.202288 -0.443122,-0.202288 -0.259016,0 -0.456759,0.095462 -0.59427,0.285249 -0.137416,0.189693 -0.214695,0.420393 -0.231742,0.689637l1.41801 0zm1.83385 0.360161c0,0.415941 0.0772787,0.753373 0.232878,1.01466 0.154557,0.260248 0.385257,0.390845 0.689732,0.390845 0.286291,0 0.503354,-0.114687 0.653271,-0.34425 0.148875,-0.230605 0.223881,-0.570404 0.223881,-1.02148 0,-0.423802 -0.0784152,-0.757824 -0.236382,-1.00207 -0.156736,-0.244337 -0.385163,-0.365938 -0.683955,-0.365938 -0.282882,0 -0.499944,0.110236 -0.652229,0.329571 -0.151053,0.220377 -0.227196,0.553263 -0.227196,0.998657zm2.48144 -0.031726c0,0.506668 -0.15219,0.915791 -0.457895,1.22822 -0.305611,0.31243 -0.694183,0.468124 -1.16572,0.468124 -0.460168,0 -0.831693,-0.147739 -1.11467,-0.441985 -0.282882,-0.294341 -0.424938,-0.678367 -0.424938,-1.15445 0,-0.48858 0.148875,-0.88738 0.445395,-1.19754 0.296614,-0.310157 0.688595,-0.464714 1.17831,-0.464714 0.461305,0 0.833966,0.143193 1.11571,0.428348 0.282977,0.285155 0.423802,0.663593 0.423802,1.13399zm0.447762 -3.06899l-0.0170468 -0.109005c0.393118,-0.0761423 0.756688,-0.155694 1.08957,-0.238655l0.0306842 0.0261384c-0.0136374,0.362434 -0.0204561,0.864651 -0.0204561,1.50779l0 2.1656c0,0.397664 0.0022729,0.716912 0.00681871,0.958976 0.00681871,0.0647778 0.0375029,0.104554 0.0931891,0.119327l0.362434 0.110141 0.0102281 0.136374c-0.299929,-0.00681871 -0.55904,-0.0102281 -0.77828,-0.0102281 -0.218199,0 -0.477215,0.00340936 -0.773734,0.0102281l-0.0136374 -0.136374 0.376071 -0.110141c0.0556862,-0.0170468 0.0852339,-0.0522768 0.0897797,-0.10569 0.00454581,-0.251156 0.00681871,-0.530628 0.00681871,-0.838512l0 -1.36687c0,-0.824969 -0.00454581,-1.48733 -0.0136374,-1.98614l-0.448804 -0.132965zm2.67009 3.10071c0,0.415941 0.0772787,0.753373 0.232878,1.01466 0.154557,0.260248 0.385257,0.390845 0.689732,0.390845 0.286291,0 0.503354,-0.114687 0.653271,-0.34425 0.148875,-0.230605 0.223881,-0.570404 0.223881,-1.02148 0,-0.423802 -0.0784152,-0.757824 -0.236382,-1.00207 -0.156736,-0.244337 -0.385163,-0.365938 -0.683955,-0.365938 -0.282882,0 -0.499944,0.110236 -0.652229,0.329571 -0.151053,0.220377 -0.227196,0.553263 -0.227196,0.998657zm2.48144 -0.031726c0,0.506668 -0.15219,0.915791 -0.457895,1.22822 -0.305611,0.31243 -0.694183,0.468124 -1.16572,0.468124 -0.460168,0 -0.831693,-0.147739 -1.11467,-0.441985 -0.282882,-0.294341 -0.424938,-0.678367 -0.424938,-1.15445 0,-0.48858 0.148875,-0.88738 0.445395,-1.19754 0.296614,-0.310157 0.688595,-0.464714 1.17831,-0.464714 0.461305,0 0.833966,0.143193 1.11571,0.428348 0.282977,0.285155 0.423802,0.663593 0.423802,1.13399zm1.27832 -0.466987c0,0.287428 0.0556862,0.508941 0.166964,0.666908 0.111372,0.15683 0.273885,0.235246 0.486307,0.235246 0.203425,0 0.356846,-0.0738694 0.460168,-0.220472 0.103417,-0.147739 0.154557,-0.362434 0.154557,-0.64541 0,-0.272654 -0.0545497,-0.486212 -0.163649,-0.644179 -0.110141,-0.15683 -0.272654,-0.235246 -0.489716,-0.235246 -0.20333,0 -0.356751,0.0715965 -0.460168,0.215926 -0.103322,0.143193 -0.154463,0.352205 -0.154463,0.627227zm-0.102281 2.20083c-0.151148,0.227196 -0.22729,0.436303 -0.22729,0.628269 0,0.196606 0.0795516,0.350027 0.236382,0.459032 0.157967,0.109099 0.372662,0.163649 0.643137,0.163649 0.321521,0 0.604403,-0.0715965 0.846467,-0.215926 0.24197,-0.144235 0.362434,-0.345387 0.362434,-0.604403 0,-0.139784 -0.0590955,-0.248883 -0.178423,-0.326162 -0.118096,-0.0760476 -0.341977,-0.114687 -0.670317,-0.114687 -0.118191,0 -0.24661,0.00340936 -0.385163,0.0102281 -0.138647,0.00681871 -0.272748,0.0102281 -0.401168,0.0102281 -0.0715018,0 -0.146508,-0.00340936 -0.226059,-0.0102281zm1.79635 -2.87806c0.170468,0.184105 0.255607,0.403346 0.255607,0.659047 0,0.357888 -0.123779,0.641906 -0.372662,0.854423 -0.248788,0.212422 -0.560081,0.318112 -0.935111,0.318112 -0.213558,0 -0.404482,-0.0329571 -0.572582,-0.100008 -0.120464,0.194333 -0.179559,0.346523 -0.179559,0.457895 0,0.0590955 0.0295478,0.100008 0.0909162,0.1216 0.0613684,0.0204561 0.173782,0.0318207 0.337432,0.0318207 0.12501,0 0.270381,-0.00340936 0.436303,-0.0102281 0.167058,-0.00681871 0.321521,-0.0102281 0.465851,-0.0102281 0.353342,0 0.64541,0.0670507 0.874879,0.201057 0.2307,0.135238 0.345387,0.334117 0.345387,0.598816 0,0.399936 -0.196512,0.71587 -0.589629,0.946475 -0.393118,0.2307 -0.839649,0.346523 -1.34073,0.346523 -0.410164,0 -0.737463,-0.0659142 -0.981705,-0.198784 -0.244337,-0.131828 -0.366979,-0.303433 -0.366979,-0.514718 0,-0.255702 0.180601,-0.543129 0.543035,-0.860105 -0.228332,-0.0875068 -0.343114,-0.202288 -0.343114,-0.346523 0,-0.202288 0.159103,-0.484034 0.476079,-0.846562 -0.346523,-0.211285 -0.519264,-0.51576 -0.519264,-0.915791 0,-0.345387 0.126146,-0.623723 0.377207,-0.835103 0.251156,-0.210149 0.576086,-0.315839 0.974886,-0.315839 0.104554,0 0.24661,0.012501 0.426075,0.0386394 0.170468,0.0306842 0.303433,0.0465945 0.3988,0.0465945 0.343209,0 0.655638,-0.00340936 0.937384,-0.0102281l0.0159103 0.13628 -0.754415 0.206834zm2.07014 -1.59406c0,0.118096 -0.0363665,0.213558 -0.109099,0.287428 -0.0737747,0.0738694 -0.1681,0.111372 -0.282882,0.111372 -0.111372,0 -0.202288,-0.0340936 -0.271517,-0.103417 -0.07046,-0.0681871 -0.10569,-0.159103 -0.10569,-0.271612 0,-0.119233 0.0375029,-0.214695 0.110236,-0.284018 0.0737747,-0.0693236 0.170373,-0.104554 0.289701,-0.104554 0.109099,0 0.197648,0.0318207 0.265835,0.0943255 0.0693236,0.0636413 0.103417,0.153421 0.103417,0.270476zm-1.12253 1.40769c0.388572,-0.0726382 0.749869,-0.149917 1.08275,-0.231742l0.0306842 0.0238655c-0.0136374,0.287428 -0.0204561,0.604498 -0.0204561,0.951021l0 1.27709c0,0.265835 0.0022729,0.44994 0.00681871,0.552221 0.00454581,0.060232 0.0318207,0.0988713 0.082961,0.115918l0.386299 0.113551 0.00681871 0.136374c-0.306747,-0.00681871 -0.569268,-0.0102281 -0.788508,-0.0102281 -0.218199,0 -0.478352,0.00340936 -0.777144,0.0102281l-0.0136374 -0.136374 0.386299 -0.112414c0.0511403,-0.0181832 0.0784152,-0.0522768 0.082961,-0.103417 0.00454581,-0.0863704 0.00681871,-0.231836 0.00681871,-0.435166l0 -1.11126c0,-0.289701 -0.00454581,-0.557903 -0.0136374,-0.804419l-0.441985 -0.119327 -0.0170468 -0.115918zm4.68919 2.69633c-0.137511,0.0942308 -0.307979,0.172646 -0.510172,0.235151 -0.203425,0.0636413 -0.404482,0.095462 -0.604498,0.095462 -0.479488,0 -0.862378,-0.14092 -1.1499,-0.421529 -0.287428,-0.280704 -0.430621,-0.655638 -0.430621,-1.1249 0,-0.507899 0.162513,-0.921473 0.487443,-1.23731 0.325025,-0.316975 0.739736,-0.474942 1.24309,-0.474942 0.326067,0 0.641906,0.0670507 0.948748,0.200016 -0.0738694,0.296519 -0.138647,0.600994 -0.196606,0.911245l-0.129556 0.0203614 -0.270381 -0.798736c-0.101144,-0.03523 -0.217062,-0.0534132 -0.345387,-0.0534132 -0.330708,0 -0.589724,0.115918 -0.776102,0.346618 -0.186283,0.230605 -0.279473,0.53508 -0.279473,0.914654 0,0.446531 0.10569,0.776007 0.315839,0.989566 0.21138,0.212517 0.545402,0.319343 1.00216,0.319343 0.21138,0 0.436303,-0.0204561 0.676094,-0.0613684l0.0193197 0.139784zm2.24392 -1.2715c-0.466892,0 -0.786235,0.047731 -0.957745,0.143193 -0.170468,0.095462 -0.255702,0.256743 -0.255702,0.484034 0,0.210149 0.0568226,0.360161 0.169331,0.447667 0.113645,0.0875068 0.266972,0.131828 0.461305,0.131828 0.220377,0 0.412437,-0.0397758 0.576086,-0.118191l0.00672401 -1.08853zm-1.61452 -1.37028c0.432894,-0.190829 0.815783,-0.286291 1.14876,-0.286291 0.340841,0 0.610085,0.0886433 0.808964,0.266972 0.197648,0.177287 0.296519,0.43403 0.294246,0.769283l-0.0170468 1.38732c-0.0022729,0.112414 0,0.204467 0.00795516,0.272654 0.00795516,0.0693236 0.0284113,0.1216 0.060232,0.159103 0.0318207,0.0363665 0.0806881,0.0613684 0.145466,0.0761423 0.0636413,0.0146792 0.149917,0.0226343 0.259016,0.0249072l0.0170468 0.129556c-0.095462,0.0375029 -0.212422,0.0750058 -0.349933,0.112509 -0.138647,0.0386394 -0.231836,0.0568226 -0.280704,0.0568226 -0.218104,0 -0.368116,-0.111372 -0.448804,-0.334022 -0.313566,0.224923 -0.610085,0.337432 -0.888516,0.337432 -0.31243,0 -0.563491,-0.0761423 -0.753278,-0.228427 -0.189787,-0.15219 -0.284018,-0.368116 -0.284018,-0.645315 0,-0.343209 0.15219,-0.595406 0.457895,-0.757919 0.305611,-0.162418 0.783963,-0.243106 1.43723,-0.243106l0.00340936 -0.259111c0.0022729,-0.247652 -0.0612737,-0.430621 -0.189693,-0.549853 -0.128419,-0.119327 -0.326067,-0.179559 -0.591997,-0.179559 -0.202194,0 -0.455623,0.0386394 -0.758961,0.115918l-0.0772787 -0.225018zm3.02012 -1.79294l-0.0170468 -0.109005c0.393118,-0.0761423 0.756688,-0.155694 1.08957,-0.238655l0.0306842 0.0261384c-0.0136374,0.362434 -0.0204561,0.864651 -0.0204561,1.50779l0 2.1656c0,0.397664 0.0022729,0.716912 0.00681871,0.958976 0.00681871,0.0647778 0.0375029,0.104554 0.0931891,0.119327l0.362434 0.110141 0.0102281 0.136374c-0.299929,-0.00681871 -0.55904,-0.0102281 -0.77828,-0.0102281 -0.218199,0 -0.477215,0.00340936 -0.773734,0.0102281l-0.0136374 -0.136374 0.376071 -0.110141c0.0556862,-0.0170468 0.0852339,-0.0522768 0.0897797,-0.10569 0.00454581,-0.251156 0.00681871,-0.530628 0.00681871,-0.838512l0 -1.36687c0,-0.824969 -0.00454581,-1.48733 -0.0136374,-1.98614l-0.448804 -0.132965zm6.07415 0.313661c-0.232878,-0.0772787 -0.446531,-0.115918 -0.641906,-0.115918 -0.293205,0 -0.527219,0.07046 -0.701096,0.212422 -0.173782,0.14092 -0.261289,0.338663 -0.261289,0.589724 0,0.144329 0.0306842,0.271517 0.0920526,0.37948 0.0601373,0.109099 0.143098,0.204561 0.246515,0.286386 0.102281,0.0828663 0.219335,0.155599 0.351069,0.220377 0.130692,0.0636413 0.26593,0.127283 0.405619,0.189787 0.153421,0.0659142 0.302296,0.13628 0.446531,0.211285 0.144329,0.0738694 0.275021,0.161376 0.390845,0.261384 0.117055,0.0999131 0.210244,0.219241 0.280704,0.359024 0.0693236,0.139784 0.104554,0.303338 0.104554,0.489716 0,0.440849 -0.172741,0.77828 -0.518127,1.01125 -0.345387,0.232878 -0.791918,0.349933 -1.33959,0.349933 -0.353342,0 -0.743145,-0.060232 -1.17149,-0.179559l-0.0204561 -0.0272748 0.163649 -1.13162 0.148875 -0.022729 0.234014 0.941929c0.235246,0.0931891 0.474942,0.139689 0.721552,0.139689 0.330613,0 0.588493,-0.0726382 0.773734,-0.219241 0.185147,-0.145466 0.278336,-0.353342 0.278336,-0.622681 0,-0.141962 -0.0295478,-0.266972 -0.0897797,-0.374934 -0.0601373,-0.107963 -0.140825,-0.199921 -0.24197,-0.278336 -0.101144,-0.0772787 -0.215926,-0.147739 -0.34425,-0.21138 -0.128419,-0.0625049 -0.26252,-0.12501 -0.399936,-0.18742 -0.154557,-0.0670507 -0.305706,-0.138647 -0.452213,-0.215926 -0.146602,-0.0784152 -0.279567,-0.168195 -0.398895,-0.271517 -0.118096,-0.103417 -0.213558,-0.229563 -0.284018,-0.379575 -0.0715965,-0.149917 -0.106826,-0.324931 -0.106826,-0.524851 0,-0.401073 0.168195,-0.712461 0.50449,-0.931701 0.336295,-0.219335 0.753373,-0.329571 1.24981,-0.329571 0.351164,0 0.718143,0.0409123 1.10217,0.122737l0.0238655 0.0238655 -0.196606 1.03853 -0.134007 0.022729 -0.215926 -0.826011zm3.87331 4.11992c-0.188556,0.118096 -0.38289,0.20333 -0.58281,0.254471 -0.200016,0.0511403 -0.385257,0.0772787 -0.55563,0.0772787 -0.48858,0 -0.882834,-0.139784 -1.18286,-0.41812 -0.301065,-0.278431 -0.451077,-0.665866 -0.451077,-1.16126 0,-0.493125 0.14092,-0.896471 0.421624,-1.21004 0.280609,-0.31243 0.655543,-0.46926 1.1248,-0.46926 0.394254,0 0.701002,0.117055 0.920337,0.352205 0.219335,0.234109 0.32834,0.557903 0.32834,0.971477 0,0.0613684 -0.00340936,0.12501 -0.0102281,0.189787l-2.1031 0c0,0.476079 0.112509,0.81692 0.336295,1.02139 0.223881,0.205698 0.57495,0.307979 1.05217,0.307979 0.212422,0 0.439712,-0.0204561 0.681682,-0.060232l0.0204561 0.144329zm-0.658953 -1.69303l0 -0.100008c0,-0.313566 -0.0500039,-0.537352 -0.148875,-0.67259 -0.0988713,-0.135238 -0.246515,-0.202288 -0.443122,-0.202288 -0.259016,0 -0.456759,0.095462 -0.59427,0.285249 -0.137416,0.189693 -0.214695,0.420393 -0.231742,0.689637l1.41801 0zm4.14606 -0.58622c0.0306842,0.106732 0.0465945,0.226059 0.0465945,0.359024l0 1.18844c0,0.259111 0.0022729,0.468124 0.00681871,0.62609 0.00454581,0.0590955 0.0329571,0.0977349 0.0863704,0.115823l0.336295 0.0965984 0.00681871 0.136374c-0.271612,-0.00681871 -0.515855,-0.0102281 -0.73519,-0.0102281 -0.218104,0 -0.461305,0.00340936 -0.72714,0.0102281l-0.0136374 -0.136374 0.315839 -0.0931891c0.0647778,-0.0226343 0.0977349,-0.0578644 0.100008,-0.106732 0.0022729,-0.0306842 0.00340936,-0.100008 0.00340936,-0.209107l0 -1.45097c0,-0.272654 -0.0613684,-0.468124 -0.185147,-0.58622 -0.123873,-0.119327 -0.306842,-0.178423 -0.549948,-0.178423 -0.213653,0 -0.432894,0.0636413 -0.655638,0.190924l0 1.45542c0,0.277294 0.0022729,0.530628 0.00681871,0.761328 0.0022729,0.0670507 0.0250019,0.104554 0.0693236,0.113645l0.353342 0.103322 0.00681871 0.136374c-0.274927,-0.00681871 -0.522673,-0.0102281 -0.741914,-0.0102281 -0.218199,0 -0.477215,0.00340936 -0.773734,0.0102281l-0.0136374 -0.136374 0.38289 -0.112414c0.0556862,-0.0159103 0.0840975,-0.0500039 0.0863704,-0.103417 0.0022729,-0.118191 0.00340936,-0.254565 0.00340936,-0.409028l0 -1.13399c0,-0.289701 -0.00454581,-0.55904 -0.0136374,-0.807828l-0.441985 -0.119327 -0.0170468 -0.115918c0.365843,-0.0703653 0.716912,-0.147644 1.05207,-0.231742l0.0329571 0.0238655 0 0.385163c0.364706,-0.272654 0.710188,-0.409028 1.03625,-0.409028 0.399936,0 0.688501,0.154557 0.865787,0.463578 0.351069,-0.30902 0.731686,-0.463578 1.14185,-0.463578 0.309115,0 0.549948,0.0875068 0.724962,0.261289 0.173877,0.173877 0.261289,0.422665 0.261289,0.746554l0 1.17708c0,0.279567 0.0022729,0.486307 0.00681871,0.619272 0.00454581,0.060232 0.0340936,0.0988713 0.0897797,0.115918l0.369252 0.113551 0.00681871 0.136374c-0.29311,-0.00681871 -0.549948,-0.0102281 -0.769189,-0.0102281 -0.222745,0 -0.465851,0.00340936 -0.729413,0.0102281l-0.0136374 -0.136374 0.329476 -0.0965984c0.0511403,-0.0180885 0.0795516,-0.0521821 0.0863704,-0.103322 0.0022729,-0.0306842 0.00340936,-0.100008 0.00340936,-0.209107l0 -1.45097c0,-0.272654 -0.0625049,-0.468124 -0.188651,-0.58622 -0.126146,-0.119327 -0.311293,-0.178423 -0.556767,-0.178423 -0.246515,0 -0.477215,0.0795516 -0.69191,0.238655zm3.96991 -1.82363c0,0.118096 -0.0363665,0.213558 -0.109099,0.287428 -0.0737747,0.0738694 -0.1681,0.111372 -0.282882,0.111372 -0.111372,0 -0.202288,-0.0340936 -0.271517,-0.103417 -0.07046,-0.0681871 -0.10569,-0.159103 -0.10569,-0.271612 0,-0.119233 0.0375029,-0.214695 0.110236,-0.284018 0.0737747,-0.0693236 0.170373,-0.104554 0.289701,-0.104554 0.109099,0 0.197648,0.0318207 0.265835,0.0943255 0.0693236,0.0636413 0.103417,0.153421 0.103417,0.270476zm-1.12253 1.40769c0.388572,-0.0726382 0.749869,-0.149917 1.08275,-0.231742l0.0306842 0.0238655c-0.0136374,0.287428 -0.0204561,0.604498 -0.0204561,0.951021l0 1.27709c0,0.265835 0.0022729,0.44994 0.00681871,0.552221 0.00454581,0.060232 0.0318207,0.0988713 0.082961,0.115918l0.386299 0.113551 0.00681871 0.136374c-0.306747,-0.00681871 -0.569268,-0.0102281 -0.788508,-0.0102281 -0.218199,0 -0.478352,0.00340936 -0.777144,0.0102281l-0.0136374 -0.136374 0.386299 -0.112414c0.0511403,-0.0181832 0.0784152,-0.0522768 0.082961,-0.103417 0.00454581,-0.0863704 0.00681871,-0.231836 0.00681871,-0.435166l0 -1.11126c0,-0.289701 -0.00454581,-0.557903 -0.0136374,-0.804419l-0.441985 -0.119327 -0.0170468 -0.115918zm1.93045 0c0.372662,-0.0703653 0.724867,-0.147644 1.05548,-0.231742l0.0340936 0.0238655 0 0.385163c0.386299,-0.272654 0.746554,-0.409028 1.07944,-0.409028 0.315839,0 0.562449,0.0886433 0.741914,0.264699 0.178423,0.17615 0.268203,0.426075 0.268203,0.749964l0 1.17367c0,0.277294 0.0022729,0.482897 0.00681871,0.615862 0.0022729,0.060232 0.0305895,0.0988713 0.0862757,0.115918l0.369347 0.113551 0.00681871 0.136374c-0.293205,-0.00681871 -0.548812,-0.0102281 -0.768147,-0.0102281 -0.218104,0 -0.461305,0.00340936 -0.72714,0.0102281l-0.0136374 -0.136374 0.332886 -0.0965984c0.0511403,-0.0180885 0.0784152,-0.0521821 0.082961,-0.103322 0.0022729,-0.0306842 0.00340936,-0.100008 0.00340936,-0.209107l0 -1.45097c0,-0.272654 -0.0647778,-0.468124 -0.19547,-0.58622 -0.130597,-0.119327 -0.322658,-0.178423 -0.577128,-0.178423 -0.223881,0 -0.454486,0.0636413 -0.693141,0.190924l0 1.45542c0,0.277294 0.0022729,0.530628 0.00681871,0.761328 0.0022729,0.060232 0.0272748,0.0977349 0.0761423,0.113645l0.346523 0.103322 0.00681871 0.136374c-0.274927,-0.00681871 -0.522673,-0.0102281 -0.741914,-0.0102281 -0.218199,0 -0.477215,0.00340936 -0.773734,0.0102281l-0.0136374 -0.136374 0.393118 -0.112414c0.0488674,-0.0204561 0.0738694,-0.0545497 0.0761423,-0.103417 0.0022729,-0.142057 0.00340936,-0.278431 0.00340936,-0.409028l0 -1.13399c0,-0.289701 -0.00454581,-0.55904 -0.0136374,-0.807828l-0.441985 -0.119327 -0.0170468 -0.115918zm5.82413 1.42483c-0.466892,0 -0.786235,0.047731 -0.957745,0.143193 -0.170468,0.095462 -0.255702,0.256743 -0.255702,0.484034 0,0.210149 0.0568226,0.360161 0.169331,0.447667 0.113645,0.0875068 0.266972,0.131828 0.461305,0.131828 0.220377,0 0.412437,-0.0397758 0.576086,-0.118191l0.00672401 -1.08853zm-1.61452 -1.37028c0.432894,-0.190829 0.815783,-0.286291 1.14876,-0.286291 0.340841,0 0.610085,0.0886433 0.808964,0.266972 0.197648,0.177287 0.296519,0.43403 0.294246,0.769283l-0.0170468 1.38732c-0.0022729,0.112414 0,0.204467 0.00795516,0.272654 0.00795516,0.0693236 0.0284113,0.1216 0.060232,0.159103 0.0318207,0.0363665 0.0806881,0.0613684 0.145466,0.0761423 0.0636413,0.0146792 0.149917,0.0226343 0.259016,0.0249072l0.0170468 0.129556c-0.095462,0.0375029 -0.212422,0.0750058 -0.349933,0.112509 -0.138647,0.0386394 -0.231836,0.0568226 -0.280704,0.0568226 -0.218104,0 -0.368116,-0.111372 -0.448804,-0.334022 -0.313566,0.224923 -0.610085,0.337432 -0.888516,0.337432 -0.31243,0 -0.563491,-0.0761423 -0.753278,-0.228427 -0.189787,-0.15219 -0.284018,-0.368116 -0.284018,-0.645315 0,-0.343209 0.15219,-0.595406 0.457895,-0.757919 0.305611,-0.162418 0.783963,-0.243106 1.43723,-0.243106l0.00340936 -0.259111c0.0022729,-0.247652 -0.0612737,-0.430621 -0.189693,-0.549853 -0.128419,-0.119327 -0.326067,-0.179559 -0.591997,-0.179559 -0.202194,0 -0.455623,0.0386394 -0.758961,0.115918l-0.0772787 -0.225018zm3.03035 -0.0545497c0.371525,-0.0703653 0.723731,-0.147644 1.05889,-0.231742l0.0340936 0.0272748 0 0.388572c0.410164,-0.2772 0.81351,-0.415847 1.209,-0.415847l0.0158156 0.0204561c-0.0635466,0.330613 -0.127188,0.674863 -0.189693,1.02944l-0.132965 0.0238655c-0.0625049,-0.188651 -0.1216,-0.340936 -0.179465,-0.454486 -0.0579591,-0.114782 -0.148875,-0.171604 -0.272748,-0.171604 -0.120464,0 -0.270381,0.0545497 -0.44994,0.165922l0 1.43951c0,0.345481 0.0022729,0.593133 0.00681871,0.740872 0.0022729,0.060232 0.0295478,0.0977349 0.082961,0.113645l0.443122 0.126051 0.0102281 0.136374c-0.346523,-0.00681871 -0.6295,-0.0102281 -0.84874,-0.0102281 -0.218199,0 -0.477215,0.00340936 -0.773734,0.0102281l-0.0136374 -0.136374 0.386299 -0.112414c0.0534132,-0.0181832 0.0806881,-0.0522768 0.082961,-0.103417 0.0022729,-0.095462 0.00340936,-0.231836 0.00340936,-0.409028l0 -1.13399c0,-0.361297 -0.00454581,-0.630541 -0.0136374,-0.807828l-0.441985 -0.119327 -0.0170468 -0.115918zm2.40075 -0.156736c0.280704,0.00681871 0.528356,0.0102281 0.746554,0.0102281 0.148781,0 0.386299,-0.00340936 0.712366,-0.0102281l0.012501 0.13628 -0.388572 0.106826c0.0818245,0.232973 0.177192,0.489716 0.286291,0.771556 0.107963,0.280609 0.223881,0.573719 0.345387,0.877152 0.0511403,0.127188 0.106826,0.272654 0.167058,0.437439 0.0613684,-0.167058 0.128419,-0.337526 0.200016,-0.510172 0.103322,-0.257975 0.204467,-0.511309 0.302202,-0.761328 0.0977349,-0.249925 0.198879,-0.521442 0.303338,-0.814647l-0.37948 -0.106826 -0.0136374 -0.13628c0.164786,0.00681871 0.356751,0.0102281 0.576086,0.0102281 0.197743,0 0.389708,-0.00340936 0.576086,-0.0102281l0.0159103 0.13628 -0.309115 0.0863704c-0.0693236,0.022729 -0.119233,0.0681871 -0.149917,0.136374 -0.0818245,0.189787 -0.170468,0.395391 -0.26593,0.620408 -0.29311,0.688501 -0.514718,1.25209 -0.665771,1.69293 -0.102281,0.297656 -0.194333,0.602225 -0.276158,0.914654 -0.082961,0.311293 -0.145371,0.579496 -0.189693,0.804419 -0.0204561,0.109099 -0.0613684,0.190924 -0.1216,0.247747 -0.0613684,0.0567279 -0.204561,0.0851392 -0.428348,0.0851392 -0.228427,0 -0.44994,-0.00795516 -0.665866,-0.0238655l-0.0159103 -0.129461c0.243201,-0.0375029 0.425033,-0.117055 0.541993,-0.236382 0.142057,-0.153326 0.362434,-0.561313 0.659047,-1.22254l0.0272748 -0.0636413 -0.0465945 -0.0136374c-0.406755,-1.01239 -0.773734,-1.90318 -1.10217,-2.67237 -0.0284113,-0.0659142 -0.0795516,-0.111372 -0.153326,-0.136374l-0.293205 -0.0897797 -0.00681871 -0.13628z"/>
  <line class="fil2 str0" x1="37.3649" y1="21.9509" x2="115.461" y2= "21.9509" />
  <path class="fil3 str1" d="M61.7967 35.3987c0,0.0199826 -0.0179938,0.056065 -0.0540762,0.108247 -0.0841922,0.114213 -0.197459,0.225018 -0.339799,0.332223 -0.142341,0.1073 -0.298697,0.160903 -0.469071,0.160903 -0.180412,0 -0.327772,-0.0516139 -0.441985,-0.154842 -0.114308,-0.103228 -0.171415,-0.256081 -0.171415,-0.458558 0,-0.138363 0.0240549,-0.29472 0.0721647,-0.469071 0.0481098,-0.174445 0.104269,-0.325783 0.168384,-0.454107 0.0661983,-0.130218 0.142814,-0.238466 0.230037,-0.324741 0.0872227,-0.0861809 0.174919,-0.129271 0.263089,-0.129271 0.0861809,0 0.152853,0.031063 0.199921,0.0931891 0.0471628,0.0622207 0.0707441,0.139405 0.0707441,0.231552 0,0.0340936 -0.0065346,0.0686606 -0.0196038,0.103796 -0.0129745,0.0350406 -0.027559,0.0645884 -0.043564,0.0886433 -0.0160997,0.0240549 -0.0281272,0.0360824 -0.0360824,0.0360824 -0.0160997,0 -0.0240549,-0.00899691 -0.0240549,-0.0270854 0,-0.00596637 0.00350406,-0.0195091 0.0105122,-0.0405335 0.00700812,-0.0210244 0.0105122,-0.0386394 0.0105122,-0.0526556 0,-0.0500986 -0.00596637,-0.0971667 -0.0179938,-0.141299 -0.0100387,-0.0380711 -0.030116,-0.0697024 -0.0601373,-0.0947043 -0.030116,-0.0250966 -0.0631678,-0.0375976 -0.0992501,-0.0375976 -0.144329,0 -0.279662,0.13931 -0.405903,0.41793 -0.0501933,0.112319 -0.092242,0.23856 -0.126336,0.378912 -0.0340936,0.140257 -0.0511403,0.27559 -0.0511403,0.405903 0,0.0901585 0.0185621,0.172362 0.0556862,0.246515 0.0370294,0.0742482 0.0901585,0.133344 0.159293,0.177476 0.0692289,0.0440375 0.149917,0.0661036 0.242064,0.0661036 0.146318,0 0.279188,-0.0350406 0.398421,-0.105217 0.119327,-0.0701759 0.237045,-0.160334 0.353342,-0.270665 0.00397758,-0.00397758 0.0179938,-0.0265172 0.0420487,-0.0676189 0.0240549,-0.0411017 0.0421434,-0.0616525 0.0541709,-0.0616525 0.0120275,0 0.0199826,0.00303054 0.0240549,0.00899691 0.00397758,0.00606108 0.00596637,0.0170468 0.00596637,0.0331465zm1.11562 -0.0841922c0,0.0781311 -0.0290742,0.168384 -0.0872227,0.27057 -0.0581485,0.102281 -0.140352,0.189977 -0.24661,0.263089 -0.106258,0.0732065 -0.22748,0.109762 -0.363759,0.109762 -0.134385,0 -0.233541,-0.0370294 -0.29775,-0.111278 -0.0641148,-0.0741535 -0.0962196,-0.166301 -0.0962196,-0.276631 0,-0.0962196 0.0175203,-0.215452 0.0526556,-0.357793 0.0350406,-0.142341 0.0846657,-0.269623 0.148875,-0.381848 0.00397758,-0.00804987 0.0204561,-0.0375976 0.0495304,-0.088738 0.0290742,-0.0510456 0.0616525,-0.0901585 0.0977349,-0.117244 0.0360824,-0.0270854 0.0741535,-0.0406282 0.114308,-0.0406282 0.0179938,0 0.0345671,0.00454581 0.0496251,0.0135427 0.0149633,0.00909162 0.0225396,0.0205508 0.0225396,0.0345671 0,0.00407229 -0.00549285,0.0135427 -0.0165733,0.0286007 -0.0109857,0.015058 -0.0195091,0.0266119 -0.0255702,0.0345671 -0.0680924,0.0822034 -0.12321,0.163365 -0.165354,0.24358 -0.0561597,0.102186 -0.0997237,0.203425 -0.130787,0.303717 -0.031063,0.100197 -0.0465945,0.209486 -0.0465945,0.327677 0,0.15844 0.0962196,0.237613 0.288659,0.237613 0.0901585,0 0.173877,-0.0260437 0.251061,-0.0782258 0.077184,-0.0520874 0.138837,-0.115729 0.184958,-0.190924 0.0460263,-0.0751952 0.0691342,-0.143856 0.0691342,-0.205982 0,-0.0701759 -0.0231079,-0.13126 -0.0691342,-0.183442 -0.046121,-0.0520874 -0.109289,-0.107205 -0.189503,-0.165354 -0.0520874,-0.0380711 -0.0901585,-0.0691342 -0.114213,-0.0931891 -0.0240549,-0.0240549 -0.0360824,-0.0441322 -0.0360824,-0.0601373 0,-0.0240549 0.0170468,-0.043564 0.0511403,-0.058622 0.0339989,-0.015058 0.0741535,-0.0225396 0.120275,-0.0225396 0.0260437,0 0.0430905,0.00151527 0.0510456,0.0044511 0.00804987,0.00303054 0.0120275,0.00852339 0.0120275,0.0165733 0,0.00397758 -0.00350406,0.0105122 -0.0105122,0.0195091 -0.00700812,0.00909162 -0.0105122,0.0165733 -0.0105122,0.0225396 0,0.00606108 0.0200773,0.0261384 0.0601373,0.0601373 0.0802146,0.0661983 0.14736,0.133344 0.201436,0.201531 0.0541709,0.0680924 0.0812563,0.148307 0.0812563,0.240549zm1.27491 0.643421c0,0.0240549 -0.0100387,0.0446057 -0.030116,0.0616525 -0.0200773,0.0170468 -0.0441322,0.0255702 -0.0721647,0.0255702 -0.0200773,0 -0.0371241,-0.00454581 -0.0511403,-0.0135427 -0.0140162,-0.00899691 -0.0210244,-0.0214979 -0.0210244,-0.0375976 0,-0.0822034 0.00606108,-0.209486 0.0180885,-0.381848 0.0120275,-0.184389 0.0179938,-0.33781 0.0179938,-0.460074 0,-0.118286 -0.00350406,-0.214979 -0.0105122,-0.290174 -0.00700812,-0.0751005 -0.0235814,-0.112698 -0.0496251,-0.112698 -0.0681871,0 -0.142814,0.0846657 -0.223976,0.254092 -0.0812563,0.169331 -0.173972,0.39236 -0.278147,0.668991l-0.0450793 0.120275c-0.00804987,0.0200773 -0.0215926,0.0360824 -0.0406282,0.0481098 -0.0190356,0.0120275 -0.0386394,0.0179938 -0.058622,0.0179938 -0.0240549,0 -0.0401546,-0.00198879 -0.0481098,-0.00596637 -0.00804987,-0.00397758 -0.0130692,-0.016005 -0.015058,-0.0360824l-0.0240549 -0.24661 -0.0450793 -0.432988c-0.0140162,-0.172362 -0.031063,-0.322658 -0.0511403,-0.450982 -0.00596637,-0.030116 -0.00899691,-0.0531291 -0.00899691,-0.0691342 0,-0.030116 0.0129745,-0.0546444 0.0391129,-0.07368 0.0260437,-0.0190356 0.056065,-0.0286007 0.0901585,-0.0286007 0.0200773,0 0.0345671,0.0481098 0.043564,0.144329 0.00909162,0.0962196 0.0185621,0.251629 0.0286007,0.46604l0.0120275 0.159387c0.016005,0.202478 0.0250966,0.330802 0.0270854,0.384878 0.00596637,-0.0120275 0.0114592,-0.0255702 0.0164786,-0.0405335 0.00501933,-0.015058 0.0115539,-0.0316312 0.0196038,-0.0496251 0.108247,-0.280704 0.20996,-0.514718 0.305137,-0.702138 0.0952726,-0.18742 0.186946,-0.281177 0.275211,-0.281177 0.062126,0 0.104648,0.0526556 0.127756,0.157872 0.0230132,0.105311 0.0375976,0.240075 0.043564,0.404482 0.00606108,0.182401 0.00909162,0.448993 0.00909162,0.799778zm1.68384 -1.26591c0,0.0340936 -0.0145845,0.0601373 -0.0436587,0.0782258 -0.0290742,0.0179938 -0.0816351,0.0321048 -0.157872,0.0420487 -0.184389,0.0321048 -0.287617,0.0501933 -0.309683,0.0541709l-0.19547 0.0330518c0,0.104269 0.00151527,0.213464 0.00454581,0.327772 0.00303054,0.114213 0.00748164,0.214505 0.0135427,0.300686 0.00795516,0.116297 0.0220661,0.205508 0.0420487,0.267634 0.0200773,0.062126 0.031063,0.0971667 0.0331465,0.105217 0,0.0200773 -0.0125957,0.0385447 -0.0375976,0.0555914 -0.0250966,0.0170468 -0.048678,0.0255702 -0.0706494,0.0255702 -0.0120275,0 -0.0220661,-0.00350406 -0.030116,-0.0105122 -0.00804987,-0.00700812 -0.015058,-0.0185621 -0.0210244,-0.0345671 -0.0120275,-0.0280325 -0.0235814,-0.0802146 -0.0345671,-0.156357 -0.0110804,-0.0761423 -0.0196038,-0.160334 -0.0255702,-0.252576 -0.00606108,-0.0822034 -0.0105122,-0.177949 -0.0135427,-0.287144 -0.00303054,-0.109289 -0.00454581,-0.214979 -0.00454581,-0.31726 -0.112225,0.0180885 -0.22748,0.0401546 -0.345766,0.0661983 -0.106258,0.0220661 -0.169426,0.0330518 -0.189409,0.0330518 -0.0240549,0 -0.0465945,-0.00700812 -0.0677136,-0.0210244 -0.0210244,-0.0140162 -0.0315365,-0.0331465 -0.0315365,-0.0572014 0,-0.0260437 0.00899691,-0.0430905 0.0270854,-0.0510456 0.0179938,-0.00804987 0.0481098,-0.0120275 0.0901585,-0.0120275 0.030116,0 0.0741535,-0.00549285 0.132302,-0.0165733 0.0581485,-0.0109857 0.0952726,-0.0185621 0.111278,-0.0225396 0.134291,-0.0260437 0.225491,-0.0430905 0.273601,-0.0511403 0,-0.0420487 -0.00198879,-0.0971667 -0.00596637,-0.165354 -0.00407229,-0.092242 -0.00606108,-0.162418 -0.00606108,-0.210528 0,-0.0781311 0.00255702,-0.138742 0.00757635,-0.181832 0.00501933,-0.0430905 0.0144898,-0.0817298 0.028506,-0.115823 0.0160997,-0.0400599 0.046121,-0.0601373 0.0902532,-0.0601373 0.0179938,0 0.0300213,0.00303054 0.0360824,0.00899691 0.00596637,0.00606108 0.00899691,0.0170468 0.00899691,0.0331465 0,0.0120275 -0.00501933,0.0470681 -0.015058,0.105217 -0.0100387,0.0581485 -0.0149633,0.135332 -0.0149633,0.231552 0,0.0741535 0.00198879,0.157304 0.00596637,0.249546l0.00303054 0.0811616c0.0901585,-0.0140162 0.268582,-0.0511403 0.535174,-0.111278 0.0160997,-0.00397758 0.0295478,-0.0179938 0.0406282,-0.0420487 0.0109857,-0.0240549 0.0225396,-0.0360824 0.0345671,-0.0360824 0.0220661,0 0.0446057,0.012501 0.0676189,0.0375976 0.0231079,0.0250019 0.0346618,0.0505721 0.0346618,0.0766158zm1.28997 0.478162c0.0140162,0 0.0210244,0.0149633 0.0210244,0.0450793 0,0.0360824 -0.0265172,0.115255 -0.0796463,0.237518 -0.0531291,0.122263 -0.133344,0.23553 -0.240549,0.339799 -0.1073,0.104269 -0.239034,0.156357 -0.395391,0.156357 -0.128324,0 -0.235624,-0.0400599 -0.321805,-0.120275 -0.0861809,-0.0802146 -0.129271,-0.203425 -0.129271,-0.36982 0,-0.156357 0.0360824,-0.311198 0.108247,-0.464619 0.0721647,-0.153326 0.166396,-0.27862 0.282692,-0.375787 0.116202,-0.0972614 0.236477,-0.145845 0.360824,-0.145845 0.0741535,0 0.136753,0.0164786 0.187893,0.0496251 0.0511403,0.0330518 0.0767105,0.0806881 0.0767105,0.142814 0,0.0701759 -0.0396811,0.138268 -0.118854,0.204467 -0.0791728,0.0661036 -0.181832,0.124252 -0.308168,0.174351 -0.126241,0.0500986 -0.256554,0.0861809 -0.390845,0.108247 -0.0240549,0.092242 -0.0360824,0.182401 -0.0360824,0.270665 0,0.116202 0.027559,0.206455 0.0826769,0.27057 0.0551179,0.0642095 0.133817,0.0962196 0.236003,0.0962196 0.154368,0 0.279662,-0.0551179 0.375882,-0.165354 0.0962196,-0.110236 0.176339,-0.234583 0.240549,-0.372851 0.00397758,-0.00804987 0.0109857,-0.0235814 0.0210244,-0.0465945 0.0100387,-0.0231079 0.0190356,-0.0345671 0.0270854,-0.0345671zm-0.264604 -0.472101c0,-0.0321048 -0.0165733,-0.0571067 -0.0496251,-0.0751952 -0.0330518,-0.0179938 -0.0716912,-0.0270854 -0.115729,-0.0270854 -0.076237,0 -0.149349,0.0250966 -0.219525,0.0751952 -0.0701759,0.0500986 -0.128798,0.110236 -0.175961,0.180412 -0.0470681,0.0701759 -0.0776576,0.132302 -0.0916738,0.186473 0.092242,-0.0100387 0.189409,-0.0360824 0.291689,-0.0782258 0.102186,-0.0420487 0.187893,-0.0881697 0.257028,-0.138268 0.0692289,-0.0500986 0.103796,-0.0912003 0.103796,-0.123305zm1.55457 1.25985c0,0.0240549 -0.0100387,0.0446057 -0.030116,0.0616525 -0.0200773,0.0170468 -0.0441322,0.0255702 -0.0721647,0.0255702 -0.0200773,0 -0.0371241,-0.00454581 -0.0511403,-0.0135427 -0.0140162,-0.00899691 -0.0210244,-0.0214979 -0.0210244,-0.0375976 0,-0.0822034 0.00606108,-0.209486 0.0180885,-0.381848 0.0120275,-0.184389 0.0179938,-0.33781 0.0179938,-0.460074 0,-0.118286 -0.00350406,-0.214979 -0.0105122,-0.290174 -0.00700812,-0.0751005 -0.0235814,-0.112698 -0.0496251,-0.112698 -0.0681871,0 -0.142814,0.0846657 -0.223976,0.254092 -0.0812563,0.169331 -0.173972,0.39236 -0.278147,0.668991l-0.0450793 0.120275c-0.00804987,0.0200773 -0.0215926,0.0360824 -0.0406282,0.0481098 -0.0190356,0.0120275 -0.0386394,0.0179938 -0.058622,0.0179938 -0.0240549,0 -0.0401546,-0.00198879 -0.0481098,-0.00596637 -0.00804987,-0.00397758 -0.0130692,-0.016005 -0.015058,-0.0360824l-0.0240549 -0.24661 -0.0450793 -0.432988c-0.0140162,-0.172362 -0.031063,-0.322658 -0.0511403,-0.450982 -0.00596637,-0.030116 -0.00899691,-0.0531291 -0.00899691,-0.0691342 0,-0.030116 0.0129745,-0.0546444 0.0391129,-0.07368 0.0260437,-0.0190356 0.056065,-0.0286007 0.0901585,-0.0286007 0.0200773,0 0.0345671,0.0481098 0.043564,0.144329 0.00909162,0.0962196 0.0185621,0.251629 0.0286007,0.46604l0.0120275 0.159387c0.016005,0.202478 0.0250966,0.330802 0.0270854,0.384878 0.00596637,-0.0120275 0.0114592,-0.0255702 0.0164786,-0.0405335 0.00501933,-0.015058 0.0115539,-0.0316312 0.0196038,-0.0496251 0.108247,-0.280704 0.20996,-0.514718 0.305137,-0.702138 0.0952726,-0.18742 0.186946,-0.281177 0.275211,-0.281177 0.062126,0 0.104648,0.0526556 0.127756,0.157872 0.0230132,0.105311 0.0375976,0.240075 0.043564,0.404482 0.00606108,0.182401 0.00909162,0.448993 0.00909162,0.799778zm1.42824 -2.07772c0,0.0400599 -0.00198879,0.118759 -0.00606108,0.236003 -0.00397758,0.117339 -0.00596637,0.235056 -0.00596637,0.353342 0,0.228522 0.00501933,0.461589 0.015058,0.699107 0.00994396,0.237518 0.0179938,0.393402 0.0240549,0.467555 0,0.0120275 0.000947043,0.0250966 0.00293583,0.0391129 0.00198879,0.0140162 0.00407229,0.0269907 0.00606108,0.0390182 0.00795516,0.0561597 0.0120275,0.0902532 0.0120275,0.102281 0,0.0200773 -0.0145845,0.0391129 -0.0436587,0.0571067 -0.0290742,0.0180885 -0.0516139,0.0270854 -0.0676189,0.0270854 -0.0220661,0 -0.0365559,-0.00852339 -0.043564,-0.0255702 -0.00700812,-0.0170468 -0.0105122,-0.0406282 -0.0105122,-0.0706494 0,-0.110236 0.00293583,-0.225491 0.00899691,-0.345766l0.00303054 -0.168384c0,-0.0561597 -0.00104175,-0.12984 -0.00303054,-0.22104 -0.00198879,-0.0912003 -0.00501933,-0.167911 -0.00899691,-0.230037 -0.102281,0.328813 -0.218009,0.600899 -0.347376,0.816351 -0.129271,0.215547 -0.269055,0.323321 -0.419446,0.323321 -0.0680924,0 -0.125767,-0.0321048 -0.172835,-0.0963143 -0.0471628,-0.0641148 -0.0706494,-0.156357 -0.0706494,-0.276631 0,-0.158346 0.0536027,-0.330708 0.160808,-0.51718 0.1073,-0.186378 0.229563,-0.346713 0.366885,-0.481098 0.137321,-0.134291 0.239034,-0.201436 0.305137,-0.201436 0.0642095,0 0.0962196,0.0210244 0.0962196,0.0631678 0,0.0280325 -0.00947043,0.0606108 -0.028506,0.0977349 -0.0190356,0.0370294 -0.0401546,0.0706494 -0.0631678,0.100671 -0.0231079,0.030116 -0.0365559,0.045174 -0.0406282,0.045174 -0.00397758,0 -0.00852339,-0.00151527 -0.0135427,-0.00454581 -0.00501933,-0.00303054 -0.00748164,-0.0065346 -0.00748164,-0.0105122 0,-0.0100387 0.00501933,-0.0270854 0.015058,-0.0511403 0.0100387,-0.0240549 0.015058,-0.0400599 0.015058,-0.0481098 0,-0.0100387 -0.00104175,-0.0170468 -0.00303054,-0.0210244 -0.00198879,-0.00397758 -0.00804987,-0.00606108 -0.0180885,-0.00606108 -0.0420487,0 -0.117717,0.0576749 -0.227006,0.17293 -0.109194,0.115255 -0.206929,0.252103 -0.29311,0.410449 -0.0862757,0.158346 -0.129366,0.305706 -0.129366,0.441985 0,0.0481098 0.0100387,0.0931891 0.030116,0.135332 0.0199826,0.0420487 0.0531291,0.0631678 0.0992501,0.0631678 0.146318,0 0.282124,-0.123779 0.407418,-0.371336 0.125294,-0.247557 0.234014,-0.528734 0.326256,-0.843437l-0.00606108 -0.252576c-0.00596637,-0.222555 -0.00899691,-0.340841 -0.00899691,-0.354857 0,-0.120275 0.00501933,-0.206455 0.015058,-0.258543 0.00397758,-0.0200773 0.00842869,-0.0340936 0.013448,-0.0421434 0.00501933,-0.00795516 0.0155315,-0.0120275 0.0316312,-0.0120275 0.0199826,0 0.0400599,0.0065346 0.0601373,0.0196038 0.0199826,0.0129745 0.0300213,0.0304948 0.0300213,0.0525609l-0.00596637 0.14736zm0.550232 0.174351c0,0.030116 -0.0330518,0.045174 -0.0992501,0.045174 -0.0340936,0 -0.0686606,-0.0140162 -0.103701,-0.0421434 -0.0351353,-0.0280325 -0.0526556,-0.0511403 -0.0526556,-0.0691342 0,-0.0220661 0.0105122,-0.0430905 0.0315365,-0.0631678 0.0211191,-0.0199826 0.042617,-0.0300213 0.0646831,-0.0300213 0,0 0.00748164,0.00246231 0.0225396,0.00748164 0.015058,0.00501933 0.0325783,0.0185621 0.0526556,0.0406282 0.016005,0.016005 0.0340936,0.0370294 0.0540762,0.0630731 0.0200773,0.0261384 0.030116,0.0421434 0.030116,0.0481098zm0.0751952 1.89134c0,0.0200773 -0.00852339,0.0356088 -0.0255702,0.0465945 -0.0170468,0.0110804 -0.0366506,0.0155315 -0.058622,0.0135427 -0.0281272,-0.00198879 -0.048678,-0.0470681 -0.0616525,-0.135332 -0.0130692,-0.0881697 -0.0266119,-0.255512 -0.0406282,-0.502122 -0.00804987,-0.162323 -0.015058,-0.321237 -0.0210244,-0.476552 -0.00606108,-0.15541 -0.0100387,-0.275116 -0.0120275,-0.359308 0,-0.0220661 0.00350406,-0.0386394 0.0105122,-0.0496251 0.00700812,-0.0110804 0.0205508,-0.0165733 0.0406282,-0.0165733 0.0460263,0 0.0751005,0.0190356 0.087128,0.0571067 0.0120275,0.0381658 0.0180885,0.111278 0.0180885,0.219525l-0.00303054 0.354857c0,0.202478 0.00606108,0.364801 0.0180885,0.487064 0,0.00606108 0.00899691,0.0701759 0.0269907,0.192439 0.0140162,0.0841922 0.0211191,0.140352 0.0211191,0.168384zm1.41327 0.0120275c0,0.0240549 -0.0100387,0.0446057 -0.030116,0.0616525 -0.0200773,0.0170468 -0.0441322,0.0255702 -0.0721647,0.0255702 -0.0200773,0 -0.0371241,-0.00454581 -0.0511403,-0.0135427 -0.0140162,-0.00899691 -0.0210244,-0.0214979 -0.0210244,-0.0375976 0,-0.0822034 0.00606108,-0.209486 0.0180885,-0.381848 0.0120275,-0.184389 0.0179938,-0.33781 0.0179938,-0.460074 0,-0.118286 -0.00350406,-0.214979 -0.0105122,-0.290174 -0.00700812,-0.0751005 -0.0235814,-0.112698 -0.0496251,-0.112698 -0.0681871,0 -0.142814,0.0846657 -0.223976,0.254092 -0.0812563,0.169331 -0.173972,0.39236 -0.278147,0.668991l-0.0450793 0.120275c-0.00804987,0.0200773 -0.0215926,0.0360824 -0.0406282,0.0481098 -0.0190356,0.0120275 -0.0386394,0.0179938 -0.058622,0.0179938 -0.0240549,0 -0.0401546,-0.00198879 -0.0481098,-0.00596637 -0.00804987,-0.00397758 -0.0130692,-0.016005 -0.015058,-0.0360824l-0.0240549 -0.24661 -0.0450793 -0.432988c-0.0140162,-0.172362 -0.031063,-0.322658 -0.0511403,-0.450982 -0.00596637,-0.030116 -0.00899691,-0.0531291 -0.00899691,-0.0691342 0,-0.030116 0.0129745,-0.0546444 0.0391129,-0.07368 0.0260437,-0.0190356 0.056065,-0.0286007 0.0901585,-0.0286007 0.0200773,0 0.0345671,0.0481098 0.043564,0.144329 0.00909162,0.0962196 0.0185621,0.251629 0.0286007,0.46604l0.0120275 0.159387c0.016005,0.202478 0.0250966,0.330802 0.0270854,0.384878 0.00596637,-0.0120275 0.0114592,-0.0255702 0.0164786,-0.0405335 0.00501933,-0.015058 0.0115539,-0.0316312 0.0196038,-0.0496251 0.108247,-0.280704 0.20996,-0.514718 0.305137,-0.702138 0.0952726,-0.18742 0.186946,-0.281177 0.275211,-0.281177 0.062126,0 0.104648,0.0526556 0.127756,0.157872 0.0230132,0.105311 0.0375976,0.240075 0.043564,0.404482 0.00606108,0.182401 0.00909162,0.448993 0.00909162,0.799778zm1.68981 -0.0511403c0,0.156452 -0.031063,0.298697 -0.0931891,0.427022 -0.062126,0.128324 -0.135332,0.232499 -0.219525,0.312714 -0.0861809,0.0822034 -0.175866,0.148875 -0.26915,0.199921 -0.0931891,0.0511403 -0.173877,0.0767105 -0.24197,0.0767105 -0.0381658,0 -0.0651566,-0.00956514 -0.0812563,-0.0286007 -0.016005,-0.0190356 -0.0240549,-0.0415752 -0.0240549,-0.0676189 0,-0.0240549 0.045174,-0.0520874 0.135332,-0.0841922 0.13628,-0.0441322 0.262615,-0.118286 0.378912,-0.22246 0.0901585,-0.0802146 0.156357,-0.171415 0.198406,-0.273696 0.0421434,-0.102186 0.0631678,-0.206455 0.0631678,-0.312714 0,-0.120275 -0.00757635,-0.23051 -0.0225396,-0.330708 -0.015058,-0.100292 -0.0386394,-0.223502 -0.0706494,-0.369915 -0.0360824,-0.154273 -0.061179,-0.285628 -0.0751952,-0.393875 -0.0340936,0.092242 -0.0867492,0.20352 -0.157872,0.333738 -0.0712177,0.130313 -0.155883,0.255607 -0.254092,0.375882 -0.092242,0.114308 -0.175866,0.199447 -0.251061,0.255607 -0.0751952,0.0561597 -0.147833,0.0841922 -0.218009,0.0841922 -0.0601373,0 -0.104743,-0.0235814 -0.133817,-0.0706494 -0.0290742,-0.0471628 -0.043564,-0.111751 -0.043564,-0.193954 0,-0.13628 0.0420487,-0.296709 0.126241,-0.481098 0.0841922,-0.184389 0.189503,-0.34283 0.315744,-0.475132 0.126336,-0.132302 0.250588,-0.198406 0.372851,-0.198406 0.0421434,0 0.074627,0.015058 0.0977349,0.0450793 0.0230132,0.030116 0.0345671,0.0661983 0.0345671,0.108247 0,0.0541709 -0.0109857,0.0811616 -0.0330518,0.0811616 -0.00606108,0 -0.0135427,-0.00748164 -0.0225396,-0.0225396 -0.00909162,-0.0149633 -0.0196038,-0.028506 -0.0316312,-0.0405335 -0.0120275,-0.0120275 -0.0250019,-0.0180885 -0.0390182,-0.0180885 -0.102281,0 -0.205982,0.0571067 -0.311293,0.171415 -0.105217,0.114213 -0.192439,0.248031 -0.261573,0.401452 -0.0691342,0.153326 -0.103701,0.279094 -0.103701,0.377302 0,0.0541709 0.00748164,0.0931891 0.0225396,0.117244 0.015058,0.0240549 0.0385447,0.0360824 0.0706494,0.0360824 0.0481098,0 0.106258,-0.0280325 0.174445,-0.0841922 0.0680924,-0.056065 0.149254,-0.144329 0.243485,-0.264604 0.0841922,-0.106164 0.160903,-0.229942 0.230037,-0.371336 0.0691342,-0.141299 0.12179,-0.276063 0.157872,-0.404388 0.00397758,-0.0120275 0.0105122,-0.0220661 0.0195091,-0.030116 0.00909162,-0.00795516 0.0196038,-0.0120275 0.0316312,-0.0120275 0.0179938,0 0.0365559,0.00558756 0.0555914,0.0165733 0.0190356,0.0110804 0.0286007,0.0225396 0.0286007,0.0345671 0,0.00804987 -0.00151527,0.0165733 -0.00454581,0.0255702 -0.00303054,0.00899691 -0.00549285,0.0145845 -0.00748164,0.0165733 0.0140162,0.110236 0.0470681,0.281651 0.0992501,0.51415 0.0380711,0.164407 0.0665771,0.302202 0.0856127,0.413479 0.0190356,0.111183 0.0286007,0.219998 0.0286007,0.326162zm2.35141 -1.88225c0,0.0240549 -0.00549285,0.0555914 -0.0165733,0.0947043 -0.0109857,0.0391129 -0.0235814,0.058622 -0.0375976,0.058622 -0.0140162,0 -0.0245284,-0.0065346 -0.0315365,-0.0195091 -0.00700812,-0.0130692 -0.0135427,-0.0305895 -0.0195091,-0.0526556 -0.0220661,-0.0680924 -0.0556862,-0.125767 -0.100765,-0.172835 -0.0450793,-0.0471628 -0.0937573,-0.0707441 -0.145845,-0.0707441 -0.140352,0 -0.241023,0.094799 -0.302202,0.284208 -0.0610843,0.189409 -0.0916738,0.411396 -0.0916738,0.665961 0.0601373,-0.00397758 0.127756,-0.013448 0.202951,-0.028506 0.0751952,-0.015058 0.12482,-0.0245284 0.148875,-0.0286007 0.142246,-0.0300213 0.236477,-0.0450793 0.282598,-0.0450793 0.0400599,0 0.0601373,0.0179938 0.0601373,0.0540762 0,0.0281272 -0.00596637,0.0581485 -0.0179938,0.0902532 -0.0120275,0.0321048 -0.030116,0.0481098 -0.0541709,0.0481098 -0.0200773,0 -0.0400599,-0.00397758 -0.0601373,-0.0120275 -0.0280325,-0.0120275 -0.0661036,-0.0180885 -0.114213,-0.0180885 -0.0321048,0 -0.0983031,0.0100387 -0.1985,0.030116l-0.240549 0.0360824c0,0.0500986 0.00606108,0.189409 0.0180885,0.41793 0.0199826,0.352868 0.0300213,0.634519 0.0300213,0.844952 0,0.0380711 -0.00397758,0.0646831 -0.0120275,0.0796463 -0.00804987,0.015058 -0.0240549,0.0226343 -0.0481098,0.0226343 -0.0280325,0 -0.0491516,-0.0160997 -0.0631678,-0.0481098 -0.0140162,-0.0321048 -0.0210244,-0.0681871 -0.0210244,-0.108247 0,-0.230605 -0.015058,-0.592376 -0.0450793,-1.0855l-0.00606108 -0.0962196c-0.016005,0.00198879 -0.0676189,0.0109857 -0.154842,0.0269907 -0.0872227,0.0160997 -0.150864,0.0240549 -0.190924,0.0240549 -0.0220661,0 -0.0406282,-0.00492463 -0.0555914,-0.0149633 -0.015058,-0.0100387 -0.0225396,-0.0250966 -0.0225396,-0.045174 0,-0.0500986 0.0179938,-0.0761423 0.0540762,-0.0781311 0.0520874,-0.00198879 0.115255,-0.0065346 0.189409,-0.0135427 0.0741535,-0.00700812 0.131355,-0.0144898 0.171415,-0.0225396 0,-0.328719 0.0446057,-0.59588 0.133817,-0.801293 0.0892115,-0.205508 0.221987,-0.308263 0.398421,-0.308263 0.0641148,0 0.123779,0.0160997 0.178896,0.0481098 0.0551179,0.0321048 0.0992501,0.0712177 0.132302,0.117244 0.0330518,0.046121 0.0496251,0.0882644 0.0496251,0.126336zm1.10956 1.28997c0,0.0781311 -0.0290742,0.168384 -0.0872227,0.27057 -0.0581485,0.102281 -0.140352,0.189977 -0.24661,0.263089 -0.106258,0.0732065 -0.22748,0.109762 -0.363759,0.109762 -0.134385,0 -0.233541,-0.0370294 -0.29775,-0.111278 -0.0641148,-0.0741535 -0.0962196,-0.166301 -0.0962196,-0.276631 0,-0.0962196 0.0175203,-0.215452 0.0526556,-0.357793 0.0350406,-0.142341 0.0846657,-0.269623 0.148875,-0.381848 0.00397758,-0.00804987 0.0204561,-0.0375976 0.0495304,-0.088738 0.0290742,-0.0510456 0.0616525,-0.0901585 0.0977349,-0.117244 0.0360824,-0.0270854 0.0741535,-0.0406282 0.114308,-0.0406282 0.0179938,0 0.0345671,0.00454581 0.0496251,0.0135427 0.0149633,0.00909162 0.0225396,0.0205508 0.0225396,0.0345671 0,0.00407229 -0.00549285,0.0135427 -0.0165733,0.0286007 -0.0109857,0.015058 -0.0195091,0.0266119 -0.0255702,0.0345671 -0.0680924,0.0822034 -0.12321,0.163365 -0.165354,0.24358 -0.0561597,0.102186 -0.0997237,0.203425 -0.130787,0.303717 -0.031063,0.100197 -0.0465945,0.209486 -0.0465945,0.327677 0,0.15844 0.0962196,0.237613 0.288659,0.237613 0.0901585,0 0.173877,-0.0260437 0.251061,-0.0782258 0.077184,-0.0520874 0.138837,-0.115729 0.184958,-0.190924 0.0460263,-0.0751952 0.0691342,-0.143856 0.0691342,-0.205982 0,-0.0701759 -0.0231079,-0.13126 -0.0691342,-0.183442 -0.046121,-0.0520874 -0.109289,-0.107205 -0.189503,-0.165354 -0.0520874,-0.0380711 -0.0901585,-0.0691342 -0.114213,-0.0931891 -0.0240549,-0.0240549 -0.0360824,-0.0441322 -0.0360824,-0.0601373 0,-0.0240549 0.0170468,-0.043564 0.0511403,-0.058622 0.0339989,-0.015058 0.0741535,-0.0225396 0.120275,-0.0225396 0.0260437,0 0.0430905,0.00151527 0.0510456,0.0044511 0.00804987,0.00303054 0.0120275,0.00852339 0.0120275,0.0165733 0,0.00397758 -0.00350406,0.0105122 -0.0105122,0.0195091 -0.00700812,0.00909162 -0.0105122,0.0165733 -0.0105122,0.0225396 0,0.00606108 0.0200773,0.0261384 0.0601373,0.0601373 0.0802146,0.0661983 0.14736,0.133344 0.201436,0.201531 0.0541709,0.0680924 0.0812563,0.148307 0.0812563,0.240549zm1.27491 -0.643516c0,0.0180885 -0.0125957,0.0386394 -0.0375976,0.0616525 -0.0250966,0.0231079 -0.0465945,0.0345671 -0.0646831,0.0345671 -0.0140162,0 -0.027559,-0.00596637 -0.0406282,-0.0179938 -0.0129745,-0.0120275 -0.027559,-0.0290742 -0.043564,-0.0511403 -0.0140162,-0.0200773 -0.0325783,-0.0371241 -0.0555914,-0.0511403 -0.0231079,-0.0140162 -0.0465945,-0.0210244 -0.0706494,-0.0210244 -0.0581485,0 -0.136374,0.0767105 -0.234583,0.230037 -0.0982084,0.153326 -0.194428,0.346239 -0.288659,0.578833 0.00198879,0.046121 0.00549285,0.104175 0.0105122,0.174351 0.00501933,0.0701759 0.00852339,0.122263 0.0105122,0.156357l0.00909162 0.120275c0,0.0281272 -0.00606108,0.0526556 -0.0180885,0.07368 -0.0120275,0.0210244 -0.0340936,0.0316312 -0.0661036,0.0316312 -0.0340936,0 -0.0561597,-0.0456475 -0.0661983,-0.136848 -0.0100387,-0.0912003 -0.016005,-0.22407 -0.0179938,-0.398421 -0.0020835,-0.0441322 -0.00359876,-0.107205 -0.00454581,-0.189409 -0.00104175,-0.0822034 -0.00350406,-0.180412 -0.00748164,-0.29472 -0.00606108,-0.172362 -0.00909162,-0.295667 -0.00909162,-0.36982 0,-0.046121 0.0281272,-0.0691342 0.0841922,-0.0691342 0.0340936,0 0.0546444,0.0144898 0.0616525,0.043564 0.00700812,0.0290742 0.0105122,0.0846657 0.0105122,0.166869l0 0.478067c0.0601373,-0.154273 0.125294,-0.287617 0.19547,-0.399842 0.0701759,-0.112319 0.138837,-0.197932 0.205982,-0.257122 0.0671454,-0.0590955 0.126809,-0.088738 0.178896,-0.088738 0.0441322,0 0.0861809,0.0100387 0.126336,0.030116 0.0400599,0.0200773 0.0721647,0.0456475 0.0962196,0.0767105 0.0240549,0.031063 0.0360824,0.0606108 0.0360824,0.0886433zm2.40852 0.0210244c0,0.0340936 -0.0145845,0.0601373 -0.0436587,0.0782258 -0.0290742,0.0179938 -0.0816351,0.0321048 -0.157872,0.0420487 -0.184389,0.0321048 -0.287617,0.0501933 -0.309683,0.0541709l-0.19547 0.0330518c0,0.104269 0.00151527,0.213464 0.00454581,0.327772 0.00303054,0.114213 0.00748164,0.214505 0.0135427,0.300686 0.00795516,0.116297 0.0220661,0.205508 0.0420487,0.267634 0.0200773,0.062126 0.031063,0.0971667 0.0331465,0.105217 0,0.0200773 -0.0125957,0.0385447 -0.0375976,0.0555914 -0.0250966,0.0170468 -0.048678,0.0255702 -0.0706494,0.0255702 -0.0120275,0 -0.0220661,-0.00350406 -0.030116,-0.0105122 -0.00804987,-0.00700812 -0.015058,-0.0185621 -0.0210244,-0.0345671 -0.0120275,-0.0280325 -0.0235814,-0.0802146 -0.0345671,-0.156357 -0.0110804,-0.0761423 -0.0196038,-0.160334 -0.0255702,-0.252576 -0.00606108,-0.0822034 -0.0105122,-0.177949 -0.0135427,-0.287144 -0.00303054,-0.109289 -0.00454581,-0.214979 -0.00454581,-0.31726 -0.112225,0.0180885 -0.22748,0.0401546 -0.345766,0.0661983 -0.106258,0.0220661 -0.169426,0.0330518 -0.189409,0.0330518 -0.0240549,0 -0.0465945,-0.00700812 -0.0677136,-0.0210244 -0.0210244,-0.0140162 -0.0315365,-0.0331465 -0.0315365,-0.0572014 0,-0.0260437 0.00899691,-0.0430905 0.0270854,-0.0510456 0.0179938,-0.00804987 0.0481098,-0.0120275 0.0901585,-0.0120275 0.030116,0 0.0741535,-0.00549285 0.132302,-0.0165733 0.0581485,-0.0109857 0.0952726,-0.0185621 0.111278,-0.0225396 0.134291,-0.0260437 0.225491,-0.0430905 0.273601,-0.0511403 0,-0.0420487 -0.00198879,-0.0971667 -0.00596637,-0.165354 -0.00407229,-0.092242 -0.00606108,-0.162418 -0.00606108,-0.210528 0,-0.0781311 0.00255702,-0.138742 0.00757635,-0.181832 0.00501933,-0.0430905 0.0144898,-0.0817298 0.028506,-0.115823 0.0160997,-0.0400599 0.046121,-0.0601373 0.0902532,-0.0601373 0.0179938,0 0.0300213,0.00303054 0.0360824,0.00899691 0.00596637,0.00606108 0.00899691,0.0170468 0.00899691,0.0331465 0,0.0120275 -0.00501933,0.0470681 -0.015058,0.105217 -0.0100387,0.0581485 -0.0149633,0.135332 -0.0149633,0.231552 0,0.0741535 0.00198879,0.157304 0.00596637,0.249546l0.00303054 0.0811616c0.0901585,-0.0140162 0.268582,-0.0511403 0.535174,-0.111278 0.0160997,-0.00397758 0.0295478,-0.0179938 0.0406282,-0.0420487 0.0109857,-0.0240549 0.0225396,-0.0360824 0.0345671,-0.0360824 0.0220661,0 0.0446057,0.012501 0.0676189,0.0375976 0.0231079,0.0250019 0.0346618,0.0505721 0.0346618,0.0766158zm1.46432 1.28703c0,0.0240549 -0.00795516,0.044511 -0.0240549,0.0615578 -0.016005,0.0170468 -0.0370294,0.0255702 -0.0630731,0.0255702 -0.0200773,0 -0.0371241,-0.0044511 -0.0511403,-0.0135427 -0.0140162,-0.00899691 -0.0210244,-0.0214979 -0.0210244,-0.0375029l0.00596637 -0.207497c0.0100387,-0.24661 0.015058,-0.448046 0.015058,-0.604403 0,-0.228522 -0.0160997,-0.388382 -0.0481098,-0.479583 -0.0321048,-0.0912003 -0.0691342,-0.136848 -0.111278,-0.136848 -0.0942308,0 -0.212517,0.145845 -0.354762,0.437534 -0.142341,0.291689 -0.279662,0.609896 -0.411964,0.954714 -0.0100387,0.0280325 -0.0235814,0.0551179 -0.0406282,0.0811616 -0.0170468,0.0260437 -0.0345671,0.0391129 -0.0525609,0.0391129 -0.0441322,0 -0.0661983,-0.0141109 -0.0661983,-0.0421434 0,-0.122263 -0.00501933,-0.351258 -0.015058,-0.68708 -0.0100387,-0.335727 -0.0179938,-0.556767 -0.0240549,-0.663025 -0.0179938,-0.358835 -0.0350406,-0.580348 -0.0510456,-0.66454 -0.0160997,-0.0841922 -0.0240549,-0.129271 -0.0240549,-0.135238 0,-0.0200773 0.0109857,-0.0351353 0.0330518,-0.045174 0.0220661,-0.00994396 0.0500986,-0.0149633 0.0841922,-0.0149633 0.0280325,0 0.0485833,0.0636413 0.0616525,0.190924 0.0129745,0.127283 0.0225396,0.290174 0.028506,0.48858l0.00303054 0.0841922c0.00397758,0.062126 0.00700812,0.240075 0.00899691,0.533754 0.00198879,0.293678 0.00303054,0.509604 0.00303054,0.647967 0.092242,-0.23051 0.178896,-0.436019 0.260058,-0.616431 0.0812563,-0.180412 0.174919,-0.34927 0.281177,-0.506668 0.106258,-0.157304 0.204467,-0.236003 0.29472,-0.236003 0.0761423,0 0.140257,0.0636413 0.192439,0.190924 0.0520874,0.127283 0.0781311,0.31726 0.0781311,0.569836 0,0.112225 0.00198879,0.268582 0.00606108,0.469071l0.00293583 0.315744z"/>
  <path class="fil3 str1" d="M83.7229 35.1702c0.0140162,0 0.0210244,0.0149633 0.0210244,0.0450793 0,0.0360824 -0.0265172,0.115255 -0.0796463,0.237518 -0.0531291,0.122263 -0.133344,0.23553 -0.240549,0.339799 -0.1073,0.104269 -0.239034,0.156357 -0.395391,0.156357 -0.128324,0 -0.235624,-0.0400599 -0.321805,-0.120275 -0.0861809,-0.0802146 -0.129271,-0.203425 -0.129271,-0.36982 0,-0.156357 0.0360824,-0.311198 0.108247,-0.464619 0.0721647,-0.153326 0.166396,-0.27862 0.282692,-0.375787 0.116202,-0.0972614 0.236477,-0.145845 0.360824,-0.145845 0.0741535,0 0.136753,0.0164786 0.187893,0.0496251 0.0511403,0.0330518 0.0767105,0.0806881 0.0767105,0.142814 0,0.0701759 -0.0396811,0.138268 -0.118854,0.204467 -0.0791728,0.0661036 -0.181832,0.124252 -0.308168,0.174351 -0.126241,0.0500986 -0.256554,0.0861809 -0.390845,0.108247 -0.0240549,0.092242 -0.0360824,0.182401 -0.0360824,0.270665 0,0.116202 0.027559,0.206455 0.0826769,0.27057 0.0551179,0.0642095 0.133817,0.0962196 0.236003,0.0962196 0.154368,0 0.279662,-0.0551179 0.375882,-0.165354 0.0962196,-0.110236 0.176339,-0.234583 0.240549,-0.372851 0.00397758,-0.00804987 0.0109857,-0.0235814 0.0210244,-0.0465945 0.0100387,-0.0231079 0.0190356,-0.0345671 0.0270854,-0.0345671zm-0.264604 -0.472101c0,-0.0321048 -0.0165733,-0.0571067 -0.0496251,-0.0751952 -0.0330518,-0.0179938 -0.0716912,-0.0270854 -0.115729,-0.0270854 -0.076237,0 -0.149349,0.0250966 -0.219525,0.0751952 -0.0701759,0.0500986 -0.128798,0.110236 -0.175961,0.180412 -0.0470681,0.0701759 -0.0776576,0.132302 -0.0916738,0.186473 0.092242,-0.0100387 0.189409,-0.0360824 0.291689,-0.0782258 0.102186,-0.0420487 0.187893,-0.0881697 0.257028,-0.138268 0.0692289,-0.0500986 0.103796,-0.0912003 0.103796,-0.123305zm3.29249 -0.598342c0,0.016005 -0.00700812,0.0325783 -0.0210244,0.0496251 -0.0141109,0.0170468 -0.0321048,0.0254755 -0.0541709,0.0254755 -0.00596637,0 -0.0265172,-0.00549285 -0.0616525,-0.0164786 -0.0350406,-0.0110804 -0.0676189,-0.0165733 -0.0977349,-0.0165733 -0.0962196,0 -0.205414,0.00501933 -0.327677,0.015058 -0.122358,0.0100387 -0.223597,0.0240549 -0.303717,0.0420487 0.00596637,0.0962196 0.0114592,0.248125 0.0164786,0.455623 0.00501933,0.207402 0.00757635,0.425412 0.00757635,0.653933 0,0.0962196 -0.00151527,0.20352 -0.00454581,0.321711 -0.00303054,0.118286 -0.00748164,0.191492 -0.0135427,0.219525 -0.00397758,0.0220661 -0.0175203,0.0401546 -0.0405335,0.0541709 -0.0231079,0.0140162 -0.0465945,0.0210244 -0.0706494,0.0210244 -0.0141109,0 -0.0261384,-0.00606108 -0.0360824,-0.0180885 -0.0100387,-0.0120275 -0.015058,-0.0260437 -0.015058,-0.0420487l0.00303054 -0.105217c0.0120275,-0.156357 0.0179938,-0.348796 0.0179938,-0.577318 0,-0.164407 -0.00198879,-0.3523 -0.00596637,-0.563775 -0.00407229,-0.211475 -0.00804987,-0.342356 -0.0120275,-0.392455 -0.400978,0.0441322 -0.668613,0.0852339 -0.802903,0.123305 -0.0240549,0.00804987 -0.0510456,0.0120275 -0.0811616,0.0120275 -0.0360824,0 -0.071123,-0.0130692 -0.105217,-0.0391129 -0.0340936,-0.0260437 -0.0511403,-0.0540762 -0.0511403,-0.0841922 0,-0.0199826 0.00606108,-0.0345671 0.0180885,-0.043564 0.0120275,-0.00899691 0.0269907,-0.0135427 0.0450793,-0.0135427 0.114213,-0.00606108 0.210433,-0.0120275 0.288659,-0.0180885 0.178423,-0.016005 0.402872,-0.041007 0.673537,-0.0751005 0,-0.062126 0.00151527,-0.106258 0.0044511,-0.132302 0.00303054,-0.0260437 0.00956514,-0.0391129 0.0196038,-0.0391129 0.0380711,0 0.0721647,0.015058 0.102186,0.0450793 0.00606108,0.00606108 0.0110804,0.0215926 0.015058,0.0465945 0.00397758,0.0250966 0.00606108,0.0416699 0.00606108,0.0496251 0.0440375,-0.00198879 0.116202,-0.0120275 0.216494,-0.0300213 0.216494,-0.0340936 0.364801,-0.0511403 0.445016,-0.0511403 0.0962196,0 0.160334,0.0120275 0.192439,0.0360824 0.0219714,0.016005 0.0330518,0.0450793 0.0330518,0.0872227zm1.24489 0.571257c0,0.0180885 -0.0125957,0.0386394 -0.0375976,0.0616525 -0.0250966,0.0231079 -0.0465945,0.0345671 -0.0646831,0.0345671 -0.0140162,0 -0.027559,-0.00596637 -0.0406282,-0.0179938 -0.0129745,-0.0120275 -0.027559,-0.0290742 -0.043564,-0.0511403 -0.0140162,-0.0200773 -0.0325783,-0.0371241 -0.0555914,-0.0511403 -0.0231079,-0.0140162 -0.0465945,-0.0210244 -0.0706494,-0.0210244 -0.0581485,0 -0.136374,0.0767105 -0.234583,0.230037 -0.0982084,0.153326 -0.194428,0.346239 -0.288659,0.578833 0.00198879,0.046121 0.00549285,0.104175 0.0105122,0.174351 0.00501933,0.0701759 0.00852339,0.122263 0.0105122,0.156357l0.00909162 0.120275c0,0.0281272 -0.00606108,0.0526556 -0.0180885,0.07368 -0.0120275,0.0210244 -0.0340936,0.0316312 -0.0661036,0.0316312 -0.0340936,0 -0.0561597,-0.0456475 -0.0661983,-0.136848 -0.0100387,-0.0912003 -0.016005,-0.22407 -0.0179938,-0.398421 -0.0020835,-0.0441322 -0.00359876,-0.107205 -0.00454581,-0.189409 -0.00104175,-0.0822034 -0.00350406,-0.180412 -0.00748164,-0.29472 -0.00606108,-0.172362 -0.00909162,-0.295667 -0.00909162,-0.36982 0,-0.046121 0.0281272,-0.0691342 0.0841922,-0.0691342 0.0340936,0 0.0546444,0.0144898 0.0616525,0.043564 0.00700812,0.0290742 0.0105122,0.0846657 0.0105122,0.166869l0 0.478067c0.0601373,-0.154273 0.125294,-0.287617 0.19547,-0.399842 0.0701759,-0.112319 0.138837,-0.197932 0.205982,-0.257122 0.0671454,-0.0590955 0.126809,-0.088738 0.178896,-0.088738 0.0441322,0 0.0861809,0.0100387 0.126336,0.030116 0.0400599,0.0200773 0.0721647,0.0456475 0.0962196,0.0767105 0.0240549,0.031063 0.0360824,0.0606108 0.0360824,0.0886433zm1.46735 1.21477c0,0.0321048 -0.00899691,0.0572014 -0.0270854,0.0751952 -0.0179938,0.0180885 -0.0430905,0.0270854 -0.0751005,0.0270854 -0.0401546,0 -0.0767105,-0.0421434 -0.109762,-0.126336 -0.0331465,-0.0841922 -0.0536974,-0.171415 -0.0616525,-0.261573 -0.00804987,-0.0861809 -0.0140162,-0.260626 -0.0180885,-0.523241 -0.00198879,-0.0420487 -0.00293583,-0.0846657 -0.00293583,-0.127756 0,-0.0430905 -0.00104175,-0.0796463 -0.00303054,-0.109762 -0.0581485,0.138363 -0.137321,0.295667 -0.237518,0.472101 -0.100292,0.176434 -0.200963,0.327772 -0.302202,0.454013 -0.101239,0.126336 -0.183916,0.189503 -0.248125,0.189503 -0.0661036,0 -0.109762,-0.0351353 -0.130787,-0.105311 -0.0210244,-0.0701759 -0.0315365,-0.181359 -0.0315365,-0.333738 0,-0.142341 0.0185621,-0.303717 0.0555914,-0.484129 0.0371241,-0.180412 0.0797411,-0.317733 0.127851,-0.411964 0.0199826,-0.0420487 0.0370294,-0.0706494 0.0510456,-0.0856127 0.0140162,-0.015058 0.030116,-0.0226343 0.0481098,-0.0226343 0.0500986,0 0.0751952,0.0100387 0.0751952,0.030116 0,0.0100387 -0.0100387,0.0330518 -0.0300213,0.0691342 -0.0541709,0.100292 -0.101239,0.220566 -0.141394,0.360824 -0.0400599,0.140352 -0.0601373,0.328813 -0.0601373,0.56529 0,0.158346 0.0220661,0.237518 0.0661983,0.237518 0.0520874,0 0.122737,-0.0575802 0.211948,-0.172835 0.0892115,-0.115255 0.177949,-0.25305 0.266119,-0.413479 0.0881697,-0.160334 0.155315,-0.299645 0.201436,-0.41793 0.0160997,-0.0400599 0.0340936,-0.102281 0.0541709,-0.186473 0.00596637,-0.0339989 0.0120275,-0.058622 0.0179938,-0.0735853 0.00606108,-0.015058 0.0130692,-0.0226343 0.0211191,-0.0226343 0.0219714,0 0.0460263,0.00909162 0.0721647,0.0270854 0.0260437,0.0180885 0.0390182,0.0371241 0.0390182,0.0571067 0,0.0962196 0.00350406,0.2611 0.0105122,0.494641 0.00700812,0.233541 0.0155315,0.395391 0.0255702,0.485644 0.00804987,0.0781311 0.0225396,0.13931 0.0436587,0.183442 0.0210244,0.0440375 0.0415752,0.0786993 0.0616525,0.103701 0.0199826,0.0250966 0.0300213,0.0406282 0.0300213,0.0465945zm1.57863 -1.19375c0,0.0340936 -0.0145845,0.0601373 -0.0436587,0.0782258 -0.0290742,0.0179938 -0.0816351,0.0321048 -0.157872,0.0420487 -0.184389,0.0321048 -0.287617,0.0501933 -0.309683,0.0541709l-0.19547 0.0330518c0,0.104269 0.00151527,0.213464 0.00454581,0.327772 0.00303054,0.114213 0.00748164,0.214505 0.0135427,0.300686 0.00795516,0.116297 0.0220661,0.205508 0.0420487,0.267634 0.0200773,0.062126 0.031063,0.0971667 0.0331465,0.105217 0,0.0200773 -0.0125957,0.0385447 -0.0375976,0.0555914 -0.0250966,0.0170468 -0.048678,0.0255702 -0.0706494,0.0255702 -0.0120275,0 -0.0220661,-0.00350406 -0.030116,-0.0105122 -0.00804987,-0.00700812 -0.015058,-0.0185621 -0.0210244,-0.0345671 -0.0120275,-0.0280325 -0.0235814,-0.0802146 -0.0345671,-0.156357 -0.0110804,-0.0761423 -0.0196038,-0.160334 -0.0255702,-0.252576 -0.00606108,-0.0822034 -0.0105122,-0.177949 -0.0135427,-0.287144 -0.00303054,-0.109289 -0.00454581,-0.214979 -0.00454581,-0.31726 -0.112225,0.0180885 -0.22748,0.0401546 -0.345766,0.0661983 -0.106258,0.0220661 -0.169426,0.0330518 -0.189409,0.0330518 -0.0240549,0 -0.0465945,-0.00700812 -0.0677136,-0.0210244 -0.0210244,-0.0140162 -0.0315365,-0.0331465 -0.0315365,-0.0572014 0,-0.0260437 0.00899691,-0.0430905 0.0270854,-0.0510456 0.0179938,-0.00804987 0.0481098,-0.0120275 0.0901585,-0.0120275 0.030116,0 0.0741535,-0.00549285 0.132302,-0.0165733 0.0581485,-0.0109857 0.0952726,-0.0185621 0.111278,-0.0225396 0.134291,-0.0260437 0.225491,-0.0430905 0.273601,-0.0511403 0,-0.0420487 -0.00198879,-0.0971667 -0.00596637,-0.165354 -0.00407229,-0.092242 -0.00606108,-0.162418 -0.00606108,-0.210528 0,-0.0781311 0.00255702,-0.138742 0.00757635,-0.181832 0.00501933,-0.0430905 0.0144898,-0.0817298 0.028506,-0.115823 0.0160997,-0.0400599 0.046121,-0.0601373 0.0902532,-0.0601373 0.0179938,0 0.0300213,0.00303054 0.0360824,0.00899691 0.00596637,0.00606108 0.00899691,0.0170468 0.00899691,0.0331465 0,0.0120275 -0.00501933,0.0470681 -0.015058,0.105217 -0.0100387,0.0581485 -0.0149633,0.135332 -0.0149633,0.231552 0,0.0741535 0.00198879,0.157304 0.00596637,0.249546l0.00303054 0.0811616c0.0901585,-0.0140162 0.268582,-0.0511403 0.535174,-0.111278 0.0160997,-0.00397758 0.0295478,-0.0179938 0.0406282,-0.0420487 0.0109857,-0.0240549 0.0225396,-0.0360824 0.0345671,-0.0360824 0.0220661,0 0.0446057,0.012501 0.0676189,0.0375976 0.0231079,0.0250019 0.0346618,0.0505721 0.0346618,0.0766158zm1.46432 1.28703c0,0.0240549 -0.00795516,0.044511 -0.0240549,0.0615578 -0.016005,0.0170468 -0.0370294,0.0255702 -0.0630731,0.0255702 -0.0200773,0 -0.0371241,-0.0044511 -0.0511403,-0.0135427 -0.0140162,-0.00899691 -0.0210244,-0.0214979 -0.0210244,-0.0375029l0.00596637 -0.207497c0.0100387,-0.24661 0.015058,-0.448046 0.015058,-0.604403 0,-0.228522 -0.0160997,-0.388382 -0.0481098,-0.479583 -0.0321048,-0.0912003 -0.0691342,-0.136848 -0.111278,-0.136848 -0.0942308,0 -0.212517,0.145845 -0.354762,0.437534 -0.142341,0.291689 -0.279662,0.609896 -0.411964,0.954714 -0.0100387,0.0280325 -0.0235814,0.0551179 -0.0406282,0.0811616 -0.0170468,0.0260437 -0.0345671,0.0391129 -0.0525609,0.0391129 -0.0441322,0 -0.0661983,-0.0141109 -0.0661983,-0.0421434 0,-0.122263 -0.00501933,-0.351258 -0.015058,-0.68708 -0.0100387,-0.335727 -0.0179938,-0.556767 -0.0240549,-0.663025 -0.0179938,-0.358835 -0.0350406,-0.580348 -0.0510456,-0.66454 -0.0160997,-0.0841922 -0.0240549,-0.129271 -0.0240549,-0.135238 0,-0.0200773 0.0109857,-0.0351353 0.0330518,-0.045174 0.0220661,-0.00994396 0.0500986,-0.0149633 0.0841922,-0.0149633 0.0280325,0 0.0485833,0.0636413 0.0616525,0.190924 0.0129745,0.127283 0.0225396,0.290174 0.028506,0.48858l0.00303054 0.0841922c0.00397758,0.062126 0.00700812,0.240075 0.00899691,0.533754 0.00198879,0.293678 0.00303054,0.509604 0.00303054,0.647967 0.092242,-0.23051 0.178896,-0.436019 0.260058,-0.616431 0.0812563,-0.180412 0.174919,-0.34927 0.281177,-0.506668 0.106258,-0.157304 0.204467,-0.236003 0.29472,-0.236003 0.0761423,0 0.140257,0.0636413 0.192439,0.190924 0.0520874,0.127283 0.0781311,0.31726 0.0781311,0.569836 0,0.112225 0.00198879,0.268582 0.00606108,0.469071l0.00293583 0.315744z"/>
  <path class="fil4" d="M-0 4.81856c9.08773,-5.39692 18.8327,-7.40578 30.7779,0.0754794 -0.295193,14.4988 -5.9354,23.8819 -15.5962,29.4177 -8.91414,-5.80026 -15.0307,-14.5268 -15.1817,-29.4932z"/>
  <path class="fil5 str2" d="M11.357 4.106c1.724,2.03908 3.71014,2.74756 6.02073,2.44962 2.42206,0.0536974 4.11462,1.20672 5.06375,2.93224l2.98811 -1.41858 -0.640201 -1.03398 3.7894 -0.156641 -2.29431 2.67066 -0.54294 -0.959071 -3.06217 1.41346 0.256365 0.405429c1.31147,0.275968 1.6864,1.66916 0.677704,2.50663 -0.0145845,1.99552 -0.962859,3.72444 -2.13085,5.35335 -1.42038,1.79758 -1.53497,3.48824 -0.919579,5.11962 -0.492273,-0.631678 -0.934921,-1.29859 -0.982936,-2.25235l-3.84414 -1.09829 3.78988 0.47409c0.853097,-2.64888 3.2834,-5.71834 2.89426,-7.42908 -0.386299,-0.0443216 -0.599005,-0.152758 -0.711608,-0.247368 -0.842869,1.00907 -1.91511,1.90877 -3.64754,2.96879 -0.286197,0.428064 -1.064,0.934164 -2.35861,1.52209 0.359308,0.630163 0.00606108,1.27652 -1.01286,1.97345 -1.27747,0.934164 -1.79825,1.86103 -1.78518,2.77133 0.0678083,1.19792 0.552884,2.23218 1.21449,3.19826 -2.60257,-1.94788 -4.28423,-4.10666 -3.50775,-6.81312 0.676284,-1.52872 1.68829,-2.85571 3.03461,-3.8932 1.01334,-0.485739 2.13142,-0.754983 3.37204,-0.769283 0.909919,-0.821844 2.75334,-1.11344 4.52649,-1.86227l0.159009 -0.768147 -0.271517 -0.479583 -6.89457 2.83147 6.59256 -3.45879c-0.685281,-1.39784 -2.02317,-2.02639 -3.74177,-2.30245 -1.41564,-0.174256 -2.85098,-0.591902 -4.29465,-1.10501l-1.99589 3.43739 1.50646 -3.71677c-0.544455,-0.66151 -0.879993,-1.47407 -1.24678,-2.26391z"/>
  <path class="fil5 str2" d="M9.75833 20.145c-0.0822034,-0.07046 -0.0210244,-1.12944 0.608759,-2.41629 0.348891,-0.713408 0.741156,-1.4558 0.761233,-1.49775 0.577128,-1.19934 1.08777,-1.33884 1.73262,-1.5291 0.222176,-0.985683 0.0460263,-1.97743 -0.49644,-2.97447 -0.369915,-1.07489 -0.418877,-1.47938 -2.30027,-1.08579 -2.08823,1.03701 -2.06427,2.6164 0.550232,4.86051 -1.00074,1.68195 -1.14914,3.20404 -0.856127,4.64288z"/>
  <path class="fil5 str2" d="M3.30812 18.5897c0.0776576,-0.782163 0.579022,-1.38022 1.37605,-1.68157 0.827716,-0.255512 1.69682,-0.0214032 2.26362,-0.212232l0.573529 -0.436682 1.20009 -1.30986c0.620787,-0.540288 0.743429,-0.378249 0.303622,0.596069 0.5687,0.0214032 0.512635,-0.111562 1.0748,-0.234014l0.104648 0.205224 -0.353626 0.22407 -0.161281 0.289795 0.635466 -0.29794 0.00975455 0.0783205 0.0910109 0.11052 -0.721268 0.569836c-0.00142057,0.942876 -0.53328,1.36772 -1.76254,1.11306l-2.90723 1.53989c-0.919579,0.214884 -1.48553,0.0184673 -1.72665,-0.554494z"/>
  <path class="fil6" d="M11.2669 27.8903l0.054455 -0.00975455 -0.0249072 0.396716 -0.00842869 0.0088075c-0.168384,-0.00255702 -0.344345,-0.00378817 -0.527882,-0.00378817 -0.170468,0 -0.327866,0.00123116 -0.470965,0.00378817l-0.00890221 -0.101239c0.0776576,-0.0506668 0.14736,-0.0970719 0.208918,-0.140162 0.0620313,-0.042617 0.115634,-0.0826769 0.160808,-0.119801 0.045174,-0.0362718 0.0852339,-0.0709335 0.119801,-0.103796 0.0346618,-0.0329571 0.063736,-0.0658195 0.0874121,-0.0983031 0.0232026,-0.0325783 0.0412911,-0.0654407 0.053508,-0.099629 0.0126904,-0.0337147 0.0186568,-0.0692289 0.0186568,-0.105879 0,-0.0759529 -0.0274643,-0.136374 -0.0827716,-0.180696 -0.0553073,-0.0447004 -0.122737,-0.0666719 -0.202951,-0.0666719 -0.0936626,0 -0.188651,0.0253808 -0.284018,0.0764264l-0.0472575 -0.0814457c0.153989,-0.104648 0.308926,-0.15702 0.463767,-0.15702 0.116013,0 0.212706,0.0283166 0.28989,0.0844763 0.0772787,0.0565385 0.115634,0.134954 0.115634,0.235814 0,0.0625049 -0.0139215,0.120748 -0.0421434,0.17473 -0.0279378,0.0539815 -0.0688501,0.107205 -0.122453,0.159103 -0.0536027,0.051898 -0.118949,0.104269 -0.196606,0.157399 -0.0772787,0.0531291 -0.165827,0.109289 -0.265835,0.168763l0.00123116 0.00634519 0.614442 0 0.0965984 -0.204183zm1.72845 -1.22633c-0.0869386,-0.0286954 -0.166206,-0.0434693 -0.238844,-0.0434693 -0.108815,0 -0.195375,0.0266119 -0.260342,0.0793622 -0.0645884,0.0527503 -0.0970719,0.126146 -0.0970719,0.219809 0,0.0536027 0.0113645,0.10086 0.0341883,0.14092 0.0228237,0.0405335 0.0531291,0.0759529 0.0915791,0.106353 0.0383553,0.0308736 0.0818245,0.0578644 0.130408,0.0819193 0.0484886,0.0235814 0.0986819,0.0472575 0.15058,0.07046 0.057012,0.0244337 0.112319,0.0505721 0.165922,0.0785099 0.0536027,0.0273696 0.102091,0.0598531 0.145087,0.0969772 0.0434693,0.0372188 0.0781311,0.0814457 0.103891,0.133344 0.0261384,0.0519927 0.0392076,0.112698 0.0392076,0.181927 0,0.164123 -0.0578644,0.289038 -0.172551,0.375597 -0.115255,0.0869386 -0.274358,0.129934 -0.477689,0.129934 -0.13126,0 -0.276442,-0.0223502 -0.435545,-0.0666719l-0.00719753 -0.0101334 0.0604214 -0.420298 0.0556862 -0.00842869 0.0864651 0.351069c0.0873174,0.0346618 0.176813,0.051898 0.268392,0.051898 0.122832,0 0.218578,-0.0273696 0.287333,-0.0814457 0.0688501,-0.054455 0.103417,-0.132018 0.103417,-0.232499 0,-0.0527503 -0.0113645,-0.0991554 -0.0333359,-0.139215 -0.0223502,-0.0401546 -0.0522768,-0.0743429 -0.0898744,-0.103038 -0.0375976,-0.0290742 -0.0802146,-0.0552126 -0.127851,-0.0784152 -0.047731,-0.0236761 -0.0974508,-0.0468786 -0.148591,-0.0700812 -0.0573908,-0.0249072 -0.113456,-0.0515192 -0.167911,-0.0802146 -0.054455,-0.0290742 -0.103796,-0.0624102 -0.147644,-0.10086 -0.0443216,-0.0383553 -0.0793622,-0.0852339 -0.105974,-0.14092 -0.0261384,-0.0556862 -0.0392076,-0.120653 -0.0392076,-0.194902 0,-0.14897 0.0556862,-0.264604 0.167532,-0.34605 0.111372,-0.0814457 0.25949,-0.122358 0.444353,-0.122358 0.129934,0 0.266687,0.0151527 0.409312,0.0455528l0.00842869 0.0088075 -0.073017 0.385731 -0.049341 0.00890221 -0.0802146 -0.308073zm1.11401 1.05832c-0.180601,0 -0.303812,0.0177097 -0.369631,0.0532238 -0.066293,0.0354194 -0.0991554,0.0948937 -0.0991554,0.179275 0,0.0781311 0.0218767,0.133817 0.0658195,0.166301 0.0434693,0.0324836 0.102944,0.0484886 0.177665,0.0484886 0.0852339,0 0.159103,-0.0143004 0.222745,-0.0429958l0.00255702 -0.404293zm-0.599668 -0.50932c0.160808,-0.0700812 0.303054,-0.105122 0.426264,-0.105122 0.126146,0 0.224449,0.0329571 0.294909,0.0987766 0.0705547,0.0658195 0.105501,0.161187 0.104648,0.285723l-0.00625049 0.514339c-0.000852339,0.0417646 0.000378817,0.0755741 0.00293583,0.101334 0.00293583,0.0252861 0.0105122,0.045174 0.0223502,0.058622 0.011838,0.0135427 0.0299266,0.0232026 0.0539815,0.0283166 0.0236761,0.00549285 0.0557809,0.00842869 0.0962196,0.00928103l0.00634519 0.0484886c-0.0354194,0.0139215 -0.0788887,0.0278431 -0.129934,0.0417646 -0.0510456,0.0143951 -0.0857074,0.0211191 -0.103796,0.0211191 -0.0798358,0 -0.13467,-0.0413858 -0.164596,-0.123684 -0.115255,0.0831504 -0.22407,0.124915 -0.326256,0.124915 -0.114782,0 -0.20674,-0.0282219 -0.276347,-0.0847604 -0.0696077,-0.0561597 -0.104269,-0.135901 -0.104269,-0.239318 0,-0.126525 0.0565385,-0.220282 0.16971,-0.280609 0.113456,-0.0599478 0.291121,-0.0898744 0.533754,-0.0898744l0.00132586 -0.0965984c0.000757635,-0.0924314 -0.0228237,-0.160808 -0.0705547,-0.20513 -0.0481098,-0.0447004 -0.121506,-0.0670507 -0.220282,-0.0670507 -0.0751005,0 -0.168763,0.0143004 -0.28184,0.0421434l-0.0283166 -0.0826769zm2.25851 0.135901c0.011838,0.0396811 0.0173309,0.083908 0.0173309,0.133344l0 0.441417c0,0.0965984 0.000852339,0.173782 0.00255702,0.232499 0.00160997,0.0223502 0.0125957,0.0366506 0.0320101,0.0434693l0.124915 0.0357982 0.00255702 0.0506668c-0.100481,-0.00255702 -0.191208,-0.00378817 -0.271801,-0.00378817 -0.0809722,0 -0.170847,0.00123116 -0.269623,0.00378817l-0.00501933 -0.0506668 0.117717 -0.0345671c0.0235814,-0.00842869 0.0362718,-0.0214979 0.0366506,-0.0396811 0.000852339,-0.0113645 0.00132586,-0.0375029 0.00132586,-0.0780364l0 -0.538868c0,-0.101334 -0.0228237,-0.174351 -0.0692289,-0.218199 -0.0460263,-0.0443216 -0.114308,-0.0661983 -0.205035,-0.0661983 -0.0798358,0 -0.16166,0.0239602 -0.244811,0.0716912l0 0.540099c0,0.103038 0.000852339,0.197553 0.00255702,0.283166 0.000852339,0.0249072 0.00928103,0.0388288 0.0257596,0.0422381l0.131166 0.0383553 0.00255702 0.0506668c-0.102091,-0.00255702 -0.19367,-0.00378817 -0.274737,-0.00378817 -0.0805934,0 -0.176339,0.00123116 -0.286481,0.00378817l-0.00511403 -0.0506668 0.142246 -0.0421434c0.0206455,-0.00596637 0.0312524,-0.0185621 0.0321048,-0.03845 0.000852339,-0.0434693 0.00123116,-0.0940414 0.00123116,-0.151906l0 -0.421529c0,-0.108058 -0.00170468,-0.208065 -0.00501933,-0.300497l-0.164217 -0.0447004 -0.00634519 -0.0417646c0.135901,-0.0266119 0.266309,-0.0553073 0.390845,-0.0865598l0.0122169 0.00852339 0 0.143477c0.135048,-0.101334 0.263278,-0.152 0.384405,-0.152 0.148591,0 0.255702,0.0573908 0.321521,0.171794 0.130029,-0.114403 0.271423,-0.171794 0.424181,-0.171794 0.114308,0 0.204183,0.0321048 0.268771,0.0970719 0.0645884,0.0645884 0.0970719,0.15702 0.0970719,0.277294l0 0.438008c0,0.103796 0.000852339,0.180222 0.00246231,0.229942 0.00170468,0.0219714 0.0126904,0.0363665 0.0333359,0.0430905l0.137227 0.0421434 0.00246231 0.0506668c-0.108815,-0.00255702 -0.20333,-0.00378817 -0.284397,-0.00378817 -0.0814457,0 -0.17132,0.00123116 -0.269623,0.00378817l-0.00464051 -0.0506668 0.122358 -0.0357982c0.0190356,-0.00681871 0.0295478,-0.0194144 0.0321048,-0.03845 0.000852339,-0.0113645 0.00123116,-0.0375029 0.00123116,-0.0780364l0 -0.538868c0,-0.101334 -0.0235814,-0.174351 -0.07046,-0.218199 -0.0468786,-0.0443216 -0.116486,-0.0661983 -0.207592,-0.0661983 -0.0924314,0 -0.178518,0.029453 -0.258732,0.0890221zm1.62844 -0.0953673l-0.00634519 -0.051898c0.165448,-0.0245284 0.331276,-0.051898 0.497103,-0.0814457l0.0109857 0.0101334c-0.00975455,0.143856 -0.0147739,0.292826 -0.0147739,0.445963l0 0.301728c0,0.10891 0.000852339,0.196701 0.00255702,0.263373 0.000852339,0.0240549 0.0122169,0.0388288 0.0345671,0.0443216l0.196701 0.0510456 0.00331465 0.049341c-0.152285,-0.00255702 -0.268771,-0.00378817 -0.349838,-0.00378817 -0.0805934,0 -0.19708,0.00123116 -0.348512,0.00378817l-0.00511403 -0.049341 0.20172 -0.0510456c0.0214979,-0.00549285 0.0324836,-0.0185621 0.0333359,-0.0393023 0.00170468,-0.0666719 0.00255702,-0.14092 0.00255702,-0.222745l0 -0.20513c0,-0.165827 -0.00170468,-0.31224 -0.00511403,-0.440091l-0.253145 -0.0249072zm1.13219 0.769283c0.0429958,0 0.0780364,0.013448 0.105879,0.0400599 0.0274643,0.0266119 0.0413858,0.0620313 0.0413858,0.105501 0,0.0438481 -0.0139215,0.0793622 -0.0413858,0.107205 -0.0278431,0.0273696 -0.0628837,0.0412911 -0.105879,0.0412911 -0.045174,0 -0.0814457,-0.0139215 -0.10891,-0.0412911 -0.0269907,-0.0278431 -0.0404388,-0.0633572 -0.0404388,-0.107205 0,-0.0434693 0.013448,-0.0788887 0.0404388,-0.105501 0.0274643,-0.0266119 0.063736,-0.0400599 0.10891,-0.0400599zm0 -0.879046c0.0429958,0 0.0780364,0.0135427 0.105879,0.0400599 0.0274643,0.0266119 0.0413858,0.0620313 0.0413858,0.105501 0,0.0439428 -0.0139215,0.0793622 -0.0413858,0.107205 -0.0278431,0.0274643 -0.0628837,0.0413858 -0.105879,0.0413858 -0.045174,0 -0.0814457,-0.0139215 -0.10891,-0.0413858 -0.0269907,-0.0278431 -0.0404388,-0.0632625 -0.0404388,-0.107205 0,-0.0434693 0.013448,-0.0788887 0.0404388,-0.105501 0.0274643,-0.0265172 0.063736,-0.0400599 0.10891,-0.0400599zm0.308073 0.109762l-0.00634519 -0.051898c0.165448,-0.0245284 0.331276,-0.051898 0.497103,-0.0814457l0.0109857 0.0101334c-0.00975455,0.143856 -0.0147739,0.292826 -0.0147739,0.445963l0 0.301728c0,0.10891 0.000852339,0.196701 0.00255702,0.263373 0.000852339,0.0240549 0.0122169,0.0388288 0.0345671,0.0443216l0.196701 0.0510456 0.00331465 0.049341c-0.152285,-0.00255702 -0.268771,-0.00378817 -0.349838,-0.00378817 -0.0805934,0 -0.19708,0.00123116 -0.348512,0.00378817l-0.00511403 -0.049341 0.20172 -0.0510456c0.0214979,-0.00549285 0.0324836,-0.0185621 0.0333359,-0.0393023 0.00170468,-0.0666719 0.00255702,-0.14092 0.00255702,-0.222745l0 -0.20513c0,-0.165827 -0.00170468,-0.31224 -0.00511403,-0.440091l-0.253145 -0.0249072zm1.23258 0.162039c-0.118949,-0.0616525 -0.200016,-0.123684 -0.243011,-0.185242 -0.0434693,-0.0620313 -0.0649672,-0.134196 -0.0649672,-0.216494 0,-0.123684 0.0510456,-0.225775 0.152758,-0.30599 0.101618,-0.0801199 0.228237,-0.120653 0.380143,-0.120653 0.136753,0 0.24983,0.0324836 0.339326,0.0965984 0.0894009,0.0642095 0.134196,0.147739 0.134196,0.24983 0,0.152379 -0.108436,0.291595 -0.325404,0.417741 0.16507,0.0798358 0.276821,0.156167 0.335916,0.227953 0.0587167,0.0721647 0.0881697,0.158251 0.0881697,0.257785 0,0.137605 -0.0603267,0.251535 -0.181832,0.341788 -0.121127,0.0903479 -0.265456,0.135522 -0.433841,0.135522 -0.168763,0 -0.306747,-0.03845 -0.413953,-0.115634 -0.107205,-0.0768052 -0.160713,-0.17937 -0.160713,-0.307221 0,-0.19206 0.130787,-0.35069 0.393212,-0.475984zm0.0877909 0.0459316c-0.169237,0.0962196 -0.253618,0.230037 -0.253618,0.400505 0,0.108058 0.0324836,0.19367 0.0970719,0.25788 0.0645884,0.0636413 0.15361,0.0957461 0.266309,0.0957461 0.102944,0 0.189409,-0.0286954 0.259111,-0.0860862 0.0696077,-0.0573908 0.104648,-0.131639 0.104648,-0.223218 0,-0.0874121 -0.0321048,-0.162513 -0.0953673,-0.225396 -0.0633572,-0.0632625 -0.189503,-0.13628 -0.378154,-0.21943zm0.19367 -0.156925c0.13126,-0.0949885 0.196701,-0.206361 0.196701,-0.333833 0,-0.0915791 -0.0261384,-0.162418 -0.0788887,-0.212232 -0.0527503,-0.0498145 -0.122453,-0.0747217 -0.208918,-0.0747217 -0.0873174,0 -0.159103,0.0228237 -0.214789,0.0679977 -0.0553073,0.0450793 -0.0831504,0.107111 -0.0831504,0.185242 0,0.0785099 0.0300213,0.143477 0.0898744,0.195375 0.0603267,0.051898 0.159956,0.109289 0.299171,0.172172z"/>
 </g>
</svg>
